<?xml version="1.0" encoding="utf-8"?>
<!-- Generator: Adobe Illustrator 19.2.1, SVG Export Plug-In . SVG Version: 6.00 Build 0)  -->
<svg version="1.1" id="Layer_1" xmlns="http://www.w3.org/2000/svg" xmlns:xlink="http://www.w3.org/1999/xlink" x="0px" y="0px"
	 viewBox="0 0 150 150" style="enable-background:new 0 0 150 150;" xml:space="preserve">
<style type="text/css">
	.st0{filter:url(#Adobe_OpacityMaskFilter);}
	.st1{fill:#FFFFFF;}
	.st2{mask:url(#mask-2);fill:#FEFEFE;}
	.st3{fill:#051821;}
	.st4{fill:#C4CDD3;}
	.st5{fill:#E0393D;}
	.st6{fill:none;}
</style>
<title>POR</title>
<desc>Created with Sketch.</desc>
<g id="Page-1_1_">
	<g id="POR">
		<g id="Page-1">
			<g id="Group-3" transform="translate(28.000000, 25.177636)">
				<g id="Clip-2">
				</g>
				<defs>
					<filter id="Adobe_OpacityMaskFilter" filterUnits="userSpaceOnUse" x="0" y="0" width="94.3" height="99.6">
						<feColorMatrix  type="matrix" values="1 0 0 0 0  0 1 0 0 0  0 0 1 0 0  0 0 0 1 0"/>
					</filter>
				</defs>
				<mask maskUnits="userSpaceOnUse" x="0" y="0" width="94.3" height="99.6" id="mask-2">
					<g class="st0">
						<polygon id="path-1" class="st1" points="94.3,99.7 0,99.7 0,0 94.3,0 						"/>
					</g>
				</mask>
				<path id="Fill-1" class="st2" d="M75,19.4L94.3,0H42.8l-22,17.3C18.7,19,16.7,20.9,15,23c-6.2,7.4-9.7,16.9-9.7,26.6
					c0,1.2,0.1,2.5,0.2,3.7c0.9,10.4,5.9,20.2,13.8,27.1L0,99.7h51.3l22-17.3c2.1-1.7,4-3.6,5.8-5.7c6.2-7.4,9.7-16.9,9.7-26.6
					c0-1.2-0.1-2.5-0.2-3.7C87.6,36.2,82.7,26.4,75,19.4"/>
			</g>
			<path id="Fill-4" class="st3" d="M100.7,44.7l17.9-17.9h-8.2L95.7,39.4l12.6-12.6h-7.9L86.3,39.4L99,26.8h-7.6L76.8,39.4
				l12.7-12.6H82L67.3,39.4L80,26.8h-8.7L49.8,43.7c-2,1.6-3.9,3.5-5.6,5.5c-6,7.1-9.3,16.2-9.3,25.5c0,1.2,0.1,2.4,0.2,3.5
				c0.9,10.5,6.1,20.4,14.6,27.1l-17.9,17.9h8.6L55,110.7l-12.6,12.6h7.5l14.6-12.6l-12.7,12.6h7.5l14.6-12.6l-12.7,12.6h7.6
				l14.6-12.6l-12.7,12.6h7.9l21.6-16.9c2-1.6,3.9-3.5,5.6-5.5c6-7.2,9.3-16.2,9.3-25.5c0-1.2-0.1-2.4-0.2-3.5
				C114.1,61.3,108.9,51.4,100.7,44.7"/>
			<path id="Fill-6" class="st4" d="M71.7,84.6l3.1-3.1c-3.6-1.1-5.6-3.6-5.6-6.7c0-1.6,0.7-3.1,1.8-4.1l40.8-40.8h-2.3L71.2,64.4
				l-3.3,3c-1.9,1.9-3.2,4.5-3.2,7.4c0,0.7,0.1,1.3,0.2,2C65.6,80.4,68.7,83.5,71.7,84.6"/>
			<path id="Fill-8" class="st4" d="M67,89.3l3.1-3.1c-4.8-2.4-7.5-6.5-7.5-11.5c0-3.3,1.3-6.4,3.5-8.6l36.3-36.4h-2.1l-34,30
				c-0.5,0.4-3.4,3-3.7,3.5c-2.8,3-4.5,7-4.5,11.5c0,0.8,0.1,1.6,0.2,2.3C59,82.4,62.4,86.9,67,89.3"/>
			<path id="Fill-10" class="st4" d="M62.1,94.2l3.1-3.1c-5.8-3.6-9.3-9.4-9.3-16.3c0-5.1,2-9.7,5.2-13.1L93,29.7h-1.9L61.6,55.2
				c-0.9,0.8-3.4,3.1-4.2,4c-3.7,4.1-5.9,9.6-5.9,15.5c0,0.9,0.1,1.8,0.2,2.6C52.4,84.4,56.5,90.5,62.1,94.2"/>
			<path id="Fill-12" class="st4" d="M57.3,99l3.2-3.2c-6.9-4.7-11.1-12.4-11.1-21.1c0-6.8,2.6-13,7-17.6l27.3-27.4h-1.8L56.7,50.6
				c-1.4,1.1-3.5,3.1-4.7,4.5c-4.5,5.3-7.2,12.1-7.2,19.6c0,1,0.1,2,0.2,3C45.8,86.5,50.5,94.1,57.3,99"/>
			<path id="Fill-14" class="st4" d="M38.3,78c0.9,10.5,6.3,19.7,14.2,25.8l3.2-3.2c-7.9-5.9-13-15.3-13-25.9c0-8.5,3.3-16.3,8.7-22
				l22.9-23h-1.6L51.9,46c-1.9,1.5-3.6,3.2-5.2,5.1c-5.4,6.4-8.6,14.7-8.6,23.7C38.2,75.8,38.2,76.9,38.3,78"/>
			<path id="Fill-16" class="st5" d="M79,65.5l-3.1,3.1c3.6,1.1,5.6,3.6,5.6,6.7c0,1.6-0.7,3.1-1.8,4.1l-40.8,40.8h2.3l38.4-34.6
				l3.3-3c2-1.9,3.2-4.5,3.2-7.4c0-0.7-0.1-1.3-0.2-2C85.1,69.7,82.1,66.6,79,65.5"/>
			<path id="Fill-18" class="st5" d="M83.8,60.8l-3.1,3.1c4.8,2.4,7.5,6.5,7.5,11.5c0,3.4-1.3,6.4-3.5,8.6l-36.3,36.4h2.1l34-30.1
				c0.5-0.4,3.4-3,3.8-3.5c2.8-3,4.5-7,4.5-11.5c0-0.8-0.1-1.6-0.2-2.3C91.7,67.7,88.3,63.1,83.8,60.8"/>
			<path id="Fill-20" class="st5" d="M88.6,55.9l-3.1,3.1c5.8,3.6,9.3,9.4,9.3,16.3c0,5.1-2,9.7-5.2,13.1l-31.8,31.9h1.9l29.6-25.5
				c0.9-0.8,3.4-3.1,4.2-4c3.7-4.1,5.9-9.6,5.9-15.5c0-0.9-0.1-1.8-0.2-2.6C98.3,65.6,94.3,59.5,88.6,55.9"/>
			<path id="Fill-22" class="st5" d="M93.4,51.1l-3.2,3.2c6.9,4.7,11.1,12.4,11.1,21.1c0,6.8-2.7,13-7,17.6l-27.4,27.4h1.8L94,99.5
				c1.4-1.1,3.5-3.1,4.7-4.5c4.5-5.3,7.3-12.1,7.3-19.6c0-1-0.1-2-0.2-3C104.9,63.6,100.2,55.9,93.4,51.1"/>
			<path id="Fill-24" class="st5" d="M112.4,72.1c-0.9-10.5-6.3-19.7-14.2-25.8L95,49.5c7.9,5.9,13,15.3,13,25.9
				c0,8.5-3.3,16.3-8.7,22l-22.9,23h1.6l20.7-16.3c1.9-1.5,3.6-3.2,5.2-5c5.4-6.4,8.6-14.7,8.6-23.7
				C112.6,74.2,112.5,73.1,112.4,72.1"/>
			<rect id="Rectangle" y="0" class="st6" width="150" height="150"/>
		</g>
	</g>
</g>
</svg>
