<?xml version="1.0" encoding="UTF-8" standalone="no" ?>
<!DOCTYPE svg PUBLIC "-//W3C//DTD SVG 1.1//EN" "http://www.w3.org/Graphics/SVG/1.1/DTD/svg11.dtd">
<svg xmlns="http://www.w3.org/2000/svg" xmlns:xlink="http://www.w3.org/1999/xlink" version="1.1" width="1080" height="1080" viewBox="0 0 1080 1080" xml:space="preserve">
<desc>Created with Fabric.js 5.2.4</desc>
<defs>
</defs>
<rect x="0" y="0" width="100%" height="100%" fill="transparent"></rect>
<g transform="matrix(1 0 0 1 540 540)" id="d45d0ef5-78f6-4b7f-95aa-a3db9f8bc876"  >
</g>
<g transform="matrix(1 0 0 1 540 540)" id="628bdb03-6c2c-4142-9497-ee40fdde4be8"  >
<rect style="stroke: none; stroke-width: 1; stroke-dasharray: none; stroke-linecap: butt; stroke-dashoffset: 0; stroke-linejoin: miter; stroke-miterlimit: 4; fill: rgb(255,255,255); fill-rule: nonzero; opacity: 1; visibility: hidden;" vector-effect="non-scaling-stroke"  x="-540" y="-540" rx="0" ry="0" width="1080" height="1080" />
</g>
<g transform="matrix(0.51 0 0 0.51 537 545)"  >
<g style="" vector-effect="non-scaling-stroke"   >
		<g transform="matrix(4.88 0 0 4.88 -0.72 -0.72)"  >
<path style="stroke: none; stroke-width: 1; stroke-dasharray: none; stroke-linecap: butt; stroke-dashoffset: 0; stroke-linejoin: miter; stroke-miterlimit: 4; fill: rgb(255,255,255); fill-opacity: 0; fill-rule: nonzero; opacity: 1;" vector-effect="non-scaling-stroke"  transform=" translate(-256, -256)" d="M 0 0 L 512 0 L 512 512 L 0 512 z" stroke-linecap="round" />
</g>
		<g transform="matrix(4.88 0 0 4.88 -0.97 -0.59)"  >
<path style="stroke: none; stroke-width: 1; stroke-dasharray: none; stroke-linecap: butt; stroke-dashoffset: 0; stroke-linejoin: miter; stroke-miterlimit: 4; fill: rgb(238,225,198); fill-rule: nonzero; opacity: 1;" vector-effect="non-scaling-stroke"  transform=" translate(-255.9, -256)" d="M 256 467.7 C 161.8 467.7 85.1 391 85.1 296.79999999999995 C 85.1 250.69999999999996 103.19999999999999 207.49999999999994 136.1 175.09999999999997 C 136.4 174.79999999999995 136.6 174.59999999999997 136.9 174.39999999999998 C 125.5 157.29999999999998 119.2 137.29999999999998 124 113.09999999999998 C 132.9 68.49999999999997 169 54.99999999999998 170.5 54.49999999999998 C 171.1 54.299999999999976 171.7 54.19999999999998 172.3 54.19999999999998 C 174.20000000000002 54.19999999999998 176 55.19999999999998 177 56.99999999999998 C 177.6 58.09999999999998 177.7 59.299999999999976 177.5 60.49999999999998 C 189.3 50.59999999999998 200.5 46.199999999999974 205.3 44.699999999999974 C 205.8 44.49999999999997 206.4 44.39999999999998 206.9 44.39999999999998 C 208.9 44.39999999999998 210.8 45.59999999999998 211.70000000000002 47.49999999999998 C 212.8 49.89999999999998 211.9 52.799999999999976 209.60000000000002 54.19999999999998 C 198.8 60.69999999999998 189.50000000000003 69.49999999999999 182.40000000000003 79.69999999999999 C 190.90000000000003 77.69999999999999 196.60000000000002 77.49999999999999 198.60000000000002 77.49999999999999 L 199.70000000000002 77.49999999999999 C 202.3 77.69999999999999 204.4 79.69999999999999 204.60000000000002 82.29999999999998 C 204.8 84.89999999999998 203.10000000000002 87.29999999999998 200.60000000000002 87.89999999999998 C 200.50000000000003 87.89999999999998 186.3 91.49999999999997 170.8 102.69999999999997 C 167.9 111.69999999999997 166.4 120.99999999999997 166.4 130.59999999999997 C 166.4 148.69999999999996 172.20000000000002 167.19999999999996 182.3 181.49999999999997 C 184.60000000000002 184.79999999999998 186.9 187.69999999999996 189.3 190.29999999999998 C 188.4 171.7 193.9 142.89999999999998 227.3 129.39999999999998 C 227.9 129.09999999999997 228.60000000000002 128.99999999999997 229.3 128.99999999999997 C 231.20000000000002 128.99999999999997 233.10000000000002 130.09999999999997 234 131.89999999999998 C 235.2 134.39999999999998 234.4 137.29999999999998 232 138.79999999999998 L 231.8 138.99999999999997 C 226.70000000000002 142.29999999999998 222.5 146.49999999999997 219.20000000000002 151.39999999999998 C 222.70000000000002 150.29999999999998 225.70000000000002 149.99999999999997 227.8 149.7 L 228.8 149.7 C 231 149.7 233 151.1 233.8 153.2 C 234.60000000000002 155.5 233.70000000000002 158.1 231.60000000000002 159.39999999999998 C 231.60000000000002 159.39999999999998 231.3 159.59999999999997 231.20000000000002 159.59999999999997 C 220.50000000000003 165.79999999999995 214.50000000000003 172.99999999999997 213.50000000000003 180.99999999999997 C 212.40000000000003 189.69999999999996 217.10000000000002 197.79999999999998 220.60000000000002 202.49999999999997 C 229.60000000000002 192.09999999999997 235.40000000000003 174.29999999999998 237.00000000000003 167.59999999999997 C 237.60000000000002 165.19999999999996 239.70000000000002 163.59999999999997 242.10000000000002 163.59999999999997 L 242.70000000000002 163.59999999999997 C 245.3 163.89999999999998 247.3 166.09999999999997 247.4 168.79999999999995 C 247.5 190.69999999999996 241.70000000000002 205.69999999999996 235.70000000000002 215.29999999999995 C 244.70000000000002 219.79999999999995 253.4 220.09999999999997 255.3 220.09999999999997 L 256.5 220.09999999999997 C 258.4 220.09999999999997 267.2 219.79999999999995 276.1 215.29999999999995 C 270.1 205.69999999999996 264.20000000000005 190.69999999999996 264.40000000000003 168.79999999999995 C 264.40000000000003 166.09999999999997 266.40000000000003 163.89999999999995 269.1 163.59999999999997 L 269.70000000000005 163.59999999999997 C 272.1 163.59999999999997 274.20000000000005 165.19999999999996 274.80000000000007 167.59999999999997 C 276.4000000000001 174.29999999999995 282.30000000000007 191.99999999999997 291.20000000000005 202.49999999999997 C 294.70000000000005 197.79999999999998 299.40000000000003 189.69999999999996 298.30000000000007 180.99999999999997 C 297.30000000000007 172.99999999999997 291.30000000000007 165.79999999999998 280.6000000000001 159.59999999999997 C 280.50000000000006 159.59999999999997 280.30000000000007 159.39999999999998 280.30000000000007 159.39999999999998 C 278.20000000000005 158.09999999999997 277.30000000000007 155.49999999999997 278.1000000000001 153.09999999999997 C 278.9000000000001 150.99999999999997 280.80000000000007 149.59999999999997 283.00000000000006 149.59999999999997 L 284.00000000000006 149.59999999999997 C 286.1000000000001 149.79999999999995 289.1000000000001 150.19999999999996 292.6000000000001 151.29999999999995 C 289.30000000000007 146.39999999999995 285.00000000000006 142.19999999999996 280.00000000000006 138.89999999999995 L 279.80000000000007 138.69999999999996 C 277.50000000000006 137.29999999999995 276.6000000000001 134.29999999999995 277.80000000000007 131.79999999999995 C 278.70000000000005 129.99999999999994 280.6000000000001 128.89999999999995 282.50000000000006 128.89999999999995 C 283.20000000000005 128.89999999999995 283.80000000000007 128.99999999999994 284.50000000000006 129.29999999999995 C 317.90000000000003 142.69999999999996 323.40000000000003 171.49999999999994 322.50000000000006 190.19999999999996 C 324.90000000000003 187.59999999999997 327.20000000000005 184.69999999999996 329.50000000000006 181.39999999999995 C 339.6000000000001 167.09999999999994 345.40000000000003 148.59999999999997 345.40000000000003 130.49999999999994 C 345.40000000000003 120.99999999999994 343.90000000000003 111.59999999999994 341.00000000000006 102.59999999999994 C 325.30000000000007 91.29999999999994 311.30000000000007 87.79999999999994 311.20000000000005 87.79999999999994 C 308.70000000000005 87.19999999999995 307.00000000000006 84.79999999999994 307.20000000000005 82.19999999999995 C 307.40000000000003 79.59999999999995 309.50000000000006 77.59999999999995 312.1 77.39999999999995 L 313.20000000000005 77.39999999999995 C 315.20000000000005 77.39999999999995 320.90000000000003 77.59999999999995 329.40000000000003 79.59999999999995 C 322.3 69.39999999999995 312.90000000000003 60.59999999999995 302.20000000000005 54.09999999999995 C 299.90000000000003 52.69999999999995 299.00000000000006 49.799999999999955 300.1 47.39999999999995 C 301 45.49999999999995 302.90000000000003 44.29999999999995 304.90000000000003 44.29999999999995 C 305.40000000000003 44.29999999999995 306.00000000000006 44.39999999999995 306.50000000000006 44.599999999999945 C 311.20000000000005 46.099999999999945 322.50000000000006 50.49999999999994 334.30000000000007 60.39999999999995 C 334.1000000000001 59.199999999999946 334.20000000000005 57.99999999999995 334.80000000000007 56.89999999999995 C 335.70000000000005 55.09999999999995 337.6000000000001 54.09999999999995 339.50000000000006 54.09999999999995 C 340.1000000000001 54.09999999999995 340.70000000000005 54.19999999999995 341.30000000000007 54.39999999999995 C 342.80000000000007 54.99999999999995 378.9000000000001 68.39999999999995 387.80000000000007 112.99999999999994 C 392.6000000000001 137.19999999999993 386.30000000000007 157.19999999999993 374.9000000000001 174.29999999999995 C 375.2000000000001 174.49999999999994 375.5000000000001 174.69999999999996 375.7000000000001 174.99999999999994 C 408.6000000000001 207.39999999999995 426.7000000000001 250.59999999999994 426.7000000000001 296.69999999999993 C 426.9000000000001 390.99999999999994 350.2000000000001 467.69999999999993 256.0000000000001 467.69999999999993" stroke-linecap="round" />
</g>
		<g transform="matrix(4.88 0 0 4.88 -1.44 -0.82)"  >
<path style="stroke: none; stroke-width: 1; stroke-dasharray: none; stroke-linecap: butt; stroke-dashoffset: 0; stroke-linejoin: miter; stroke-miterlimit: 4; fill: rgb(0,71,27); fill-rule: nonzero; opacity: 1;" vector-effect="non-scaling-stroke"  transform=" translate(-255.8, -255.95)" d="M 372.1 178.8 L 368.40000000000003 183.20000000000002 C 397.6 212.20000000000002 415.70000000000005 252.3 415.70000000000005 296.70000000000005 C 415.70000000000005 384.90000000000003 344.20000000000005 456.50000000000006 255.90000000000003 456.50000000000006 C 167.70000000000005 456.50000000000006 96.10000000000002 385.00000000000006 96.10000000000002 296.70000000000005 C 96.10000000000002 252.30000000000004 114.20000000000002 212.10000000000005 143.40000000000003 183.20000000000005 L 139.70000000000005 178.80000000000004 C 109.20000000000005 208.90000000000003 90.20000000000005 250.60000000000002 90.20000000000005 296.70000000000005 C 90.20000000000005 388.00000000000006 164.50000000000006 462.30000000000007 255.80000000000004 462.30000000000007 C 347.1 462.30000000000007 421.4 388 421.4 296.7 C 421.59999999999997 250.7 402.59999999999997 208.89999999999998 372.09999999999997 178.79999999999998 M 151.89999999999998 191.2 C 125.09999999999998 218 107.79999999999998 256 107.79999999999998 296.79999999999995 C 107.79999999999998 306.19999999999993 108.69999999999999 315.49999999999994 110.39999999999998 324.4 L 155.09999999999997 312.29999999999995 C 162.49999999999997 360.99999999999994 204.59999999999997 398.49999999999994 255.39999999999998 398.49999999999994 C 306.29999999999995 398.49999999999994 348.59999999999997 360.79999999999995 355.79999999999995 311.79999999999995 L 401.59999999999997 324.4 C 403.29999999999995 315.4 404.2 306.2 404.2 296.79999999999995 C 404.2 255.99999999999994 387.2 218.49999999999994 360.4 191.69999999999996 L 364.29999999999995 187.49999999999997 C 392.6 215.4 410 254 410 296.8 C 410 381.70000000000005 340.9 450.8 256 450.8 C 171.10000000000002 450.8 102 381.70000000000005 102 296.8 C 102 254 119.6 215.20000000000002 147.9 187.3 L 151.9 191.20000000000002 z M 129.29999999999998 114.1 C 137.7 71.89999999999999 172.39999999999998 59.39999999999999 172.39999999999998 59.39999999999999 C 159.7 68.8 146.7 86.39999999999999 141.39999999999998 111.19999999999999 C 146.59999999999997 104.69999999999999 151.49999999999997 99.89999999999999 157.09999999999997 95.99999999999999 C 171.19999999999996 65.69999999999999 195.19999999999996 53.399999999999984 206.99999999999997 49.59999999999999 C 191.69999999999996 58.79999999999998 178.89999999999998 72.6 171.2 88.39999999999998 C 188.89999999999998 82.09999999999998 199.5 82.69999999999997 199.5 82.69999999999997 C 199.5 82.69999999999997 183.7 86.49999999999997 166.4 99.29999999999998 C 163 109.09999999999998 161.20000000000002 119.49999999999999 161.20000000000002 130.39999999999998 C 161.20000000000002 149.59999999999997 167.4 169.29999999999998 178.00000000000003 184.29999999999998 C 184.00000000000003 192.79999999999998 189.80000000000004 198.7 197.00000000000003 203.99999999999997 C 194.60000000000002 197.99999999999997 185.50000000000003 151.7 229.3 134.09999999999997 L 229 134.29999999999995 C 218.7 140.99999999999994 211 151.39999999999995 207.9 163.69999999999996 C 215.9 155.99999999999997 224.3 155.19999999999996 228.8 154.69999999999996 C 228.70000000000002 154.69999999999996 228.70000000000002 154.79999999999995 228.60000000000002 154.79999999999995 C 187.90000000000003 178.19999999999996 220.3 209.99999999999994 220.3 209.99999999999994 C 233.10000000000002 199.29999999999995 240.60000000000002 175.19999999999993 242.20000000000002 168.59999999999994 C 242.4 193.99999999999994 233.9 209.19999999999993 228.20000000000002 216.69999999999993 C 241.3 225.69999999999993 256 225.09999999999994 256 225.09999999999994 C 256 225.09999999999994 270.7 225.69999999999993 283.8 216.69999999999993 C 278.1 209.29999999999993 269.6 193.99999999999994 269.8 168.59999999999994 C 271.40000000000003 175.19999999999993 278.90000000000003 199.19999999999993 291.7 209.99999999999994 C 291.7 209.99999999999994 324 178.19999999999993 283.4 154.79999999999995 C 283.29999999999995 154.79999999999995 283.29999999999995 154.69999999999996 283.2 154.69999999999996 C 287.59999999999997 155.19999999999996 296.09999999999997 155.99999999999997 304.09999999999997 163.69999999999996 C 300.99999999999994 151.39999999999995 293.4 140.99999999999997 282.99999999999994 134.29999999999995 L 282.69999999999993 134.09999999999997 C 326.49999999999994 151.69999999999996 317.3999999999999 197.99999999999997 314.99999999999994 203.99999999999997 C 322.19999999999993 198.69999999999996 327.99999999999994 192.79999999999998 333.99999999999994 184.29999999999998 C 344.69999999999993 169.2 350.79999999999995 149.59999999999997 350.79999999999995 130.39999999999998 C 350.79999999999995 119.49999999999997 348.9 108.99999999999997 345.59999999999997 99.29999999999998 C 328.29999999999995 86.49999999999999 312.49999999999994 82.69999999999999 312.49999999999994 82.69999999999999 C 312.49999999999994 82.69999999999999 323.19999999999993 82.1 340.79999999999995 88.39999999999999 C 333 72.6 320.3 58.8 305 49.6 C 316.8 53.4 340.8 65.7 354.9 96 C 360.59999999999997 99.9 365.4 104.7 370.59999999999997 111.2 C 365.2 86.4 352.29999999999995 68.80000000000001 339.59999999999997 59.400000000000006 C 339.59999999999997 59.400000000000006 374.29999999999995 71.9 382.7 114.10000000000001 C 392.5 163.20000000000002 353.2 193.9 321.59999999999997 220.2 L 345.79999999999995 210.29999999999998 C 347.4 209.6 348.59999999999997 211.2 348.29999999999995 213.1 L 347.59999999999997 219.1 C 347.2 222.4 344.79999999999995 239 335.7 244.1 C 333.7 245.2 330.3 246.4 320.3 247.2 L 302.2 248.39999999999998 L 305.2 258.59999999999997 L 287.2 286.99999999999994 L 296.3 277.3999999999999 L 314.90000000000003 343.5999999999999 L 263.8 385.5999999999999 L 279.7 313.2999999999999 L 255.89999999999998 342.2999999999999 L 232.09999999999997 313.2999999999999 L 247.99999999999997 385.5999999999999 L 196.89999999999998 343.5999999999999 L 215.49999999999997 277.3999999999999 L 224.59999999999997 286.99999999999994 L 206.99999999999997 258.49999999999994 L 209.99999999999997 248.29999999999995 L 191.89999999999998 247.09999999999997 C 181.89999999999998 246.39999999999998 178.49999999999997 245.09999999999997 176.49999999999997 243.99999999999997 C 167.39999999999998 238.99999999999997 164.99999999999997 222.29999999999998 164.59999999999997 218.99999999999997 L 163.89999999999998 212.99999999999997 C 163.59999999999997 211.09999999999997 164.7 209.49999999999997 166.39999999999998 210.19999999999996 L 190.59999999999997 220.09999999999997 C 158.79999999999995 193.89999999999998 119.49999999999997 163.19999999999996 129.29999999999995 114.09999999999997 M 358.29999999999995 166.89999999999998 C 358.29999999999995 166.89999999999998 378.29999999999995 135.29999999999998 364.59999999999997 117.59999999999998 C 363.2 115.79999999999998 361.7 114.09999999999998 360.2 112.49999999999999 C 365.9 132.7 358.3 166.89999999999998 358.3 166.89999999999998 M 153.70000000000002 166.89999999999998 C 153.70000000000002 166.89999999999998 146.20000000000002 132.7 151.8 112.49999999999997 C 150.3 114.09999999999997 148.8 115.79999999999997 147.4 117.59999999999997 C 133.70000000000002 135.29999999999995 153.70000000000002 166.89999999999998 153.70000000000002 166.89999999999998" stroke-linecap="round" />
</g>
		<g transform="matrix(4.88 0 0 4.88 -0.15 364.44)"  >
<path style="stroke: none; stroke-width: 1; stroke-dasharray: none; stroke-linecap: butt; stroke-dashoffset: 0; stroke-linejoin: miter; stroke-miterlimit: 4; fill: rgb(255,255,255); fill-rule: nonzero; opacity: 1;" vector-effect="non-scaling-stroke"  transform=" translate(-256.05, -330.7)" d="M 203.3 395.8 L 204.3 394.2 L 204.4 394 L 189.20000000000002 384.3 L 189.10000000000002 384.40000000000003 L 169.90000000000003 414.50000000000006 L 174.60000000000002 417.50000000000006 L 183.10000000000002 404.30000000000007 L 189.00000000000003 408.1000000000001 L 180.50000000000003 421.30000000000007 L 185.20000000000002 424.30000000000007 L 201.50000000000003 398.80000000000007 L 203.30000000000004 395.80000000000007 z M 192 403.3 L 186.1 399.5 L 190.79999999999998 392.1 L 196.7 395.8 L 192 403.3 z M 186.6 382.3 L 159.1 405.7 L 155.29999999999998 402 L 161.89999999999998 392 L 151.99999999999997 398.8 L 148.19999999999996 395.1 L 171.19999999999996 367.3 L 174.89999999999995 370.90000000000003 L 165.59999999999994 382.6 L 178.19999999999993 374.20000000000005 L 179.49999999999994 375.50000000000006 L 171.19999999999993 388.20000000000005 L 182.79999999999993 378.70000000000005 L 186.59999999999994 382.30000000000007 z M 159.5 349 L 127.6 365.6 L 125 360.70000000000005 L 156.9 344.1 L 159.5 349 z M 154.5 339.4 L 120.5 351.09999999999997 L 118.7 345.79999999999995 L 140 338.49999999999994 L 130.2 338.19999999999993 L 137.79999999999998 331.8999999999999 L 116.49999999999999 339.19999999999993 L 114.69999999999999 333.8999999999999 L 148.7 322.19999999999993 L 150.5 327.49999999999994 L 142.9 333.79999999999995 L 152.70000000000002 334.09999999999997 L 154.50000000000003 339.4 z M 140.7 376 L 147.6 385.6 L 142.9 388.90000000000003 L 132.8 374.8 L 162 353.90000000000003 L 165.2 358.40000000000003 L 140.7 376.00000000000006 z M 224.29999999999998 402.3 L 211.49999999999997 435.7 L 207.89999999999998 434.3 L 198.29999999999998 430.6 L 194.39999999999998 429.1 L 207.39999999999998 395.8 L 212.59999999999997 397.8 L 201.79999999999995 425.8 L 208.29999999999995 428.3 L 219.09999999999997 400.3 L 224.29999999999995 402.3 z M 371.6 378.1 L 374.70000000000005 380.6 L 365.90000000000003 391.6 L 363.40000000000003 394.70000000000005 L 338.70000000000005 375.00000000000006 L 335.50000000000006 372.50000000000006 L 346.80000000000007 358.40000000000003 L 350.00000000000006 360.90000000000003 L 355.30000000000007 365.20000000000005 L 351.80000000000007 369.50000000000006 L 347.80000000000007 366.30000000000007 L 343.4000000000001 371.80000000000007 L 362.4000000000001 387.00000000000006 L 366.80000000000007 381.50000000000006 L 362.70000000000005 378.30000000000007 L 366.20000000000005 374.00000000000006 L 371.6 378.1000000000001 z M 365.70000000000005 353.5 L 388.50000000000006 356.5 L 385.80000000000007 361.7 L 369.20000000000005 359.59999999999997 L 383.00000000000006 366.9 L 380.40000000000003 371.79999999999995 L 348.70000000000005 354.99999999999994 L 351.30000000000007 350.09999999999997 L 360.1000000000001 354.79999999999995 L 353.50000000000006 345.9 L 356.30000000000007 340.7 L 365.70000000000005 353.5 z M 397.40000000000003 331.4 L 392.20000000000005 348.7 L 388.40000000000003 347.59999999999997 L 382.6 345.9 L 384.20000000000005 340.59999999999997 L 388.30000000000007 341.79999999999995 L 390.30000000000007 335.09999999999997 L 380.80000000000007 332.2 L 377.1000000000001 344.2 L 373.30000000000007 343.09999999999997 L 358.00000000000006 338.49999999999994 L 359.1000000000001 334.69999999999993 L 363.1000000000001 321.19999999999993 L 367.00000000000006 322.3999999999999 L 372.70000000000005 324.0999999999999 L 371.1 329.3999999999999 L 367 328.19999999999993 L 365 334.8999999999999 L 373.3 337.3999999999999 L 376.90000000000003 325.3999999999999 L 380.70000000000005 326.49999999999994 L 393.50000000000006 330.29999999999995 L 397.40000000000003 331.4 z M 332.6 375.5 L 355.6 402.8 L 352.6 405.3 L 344.8 411.90000000000003 L 341.6 414.6 L 318.70000000000005 387.1 L 323.00000000000006 383.5 L 342.40000000000003 406.5 L 347.70000000000005 402 L 328.30000000000007 379 L 332.6000000000001 375.5 z M 291.8 432.3 L 292.90000000000003 437.90000000000003 L 276.00000000000006 441.20000000000005 L 269.1000000000001 406.1 L 286.00000000000006 402.8 L 287.1000000000001 408.40000000000003 L 275.6000000000001 410.70000000000005 L 277.30000000000007 419.20000000000005 L 288.80000000000007 416.90000000000003 L 289.9000000000001 422.50000000000006 L 278.4000000000001 424.80000000000007 L 280.30000000000007 434.70000000000005 L 291.80000000000007 432.30000000000007 z M 265.5 436.40000000000003 L 265.6 442.1 L 248.3 442.40000000000003 L 247.70000000000002 406.70000000000005 L 265 406.40000000000003 L 265.1 412.1 L 253.40000000000003 412.3 L 253.50000000000003 420.90000000000003 L 265.20000000000005 420.70000000000005 L 265.30000000000007 426.40000000000003 L 253.60000000000008 426.6 L 253.80000000000007 436.70000000000005 L 265.50000000000006 436.40000000000003 z M 321.8 406.50000000000006 L 322.40000000000003 403.00000000000006 L 316.90000000000003 392.90000000000003 L 311.70000000000005 391.40000000000003 L 299.30000000000007 398.1 L 316.30000000000007 429.5 L 328.70000000000005 422.8 L 330.20000000000005 417.6 L 324.90000000000003 407.8 L 321.8 406.5 z M 306.8 400.6000000000001 L 313 397.30000000000007 L 317.1 404.9000000000001 L 310.90000000000003 408.2000000000001 L 306.8 400.6000000000001 z M 318.3 421.9000000000001 L 313.5 413.1000000000001 L 319.7 409.80000000000007 L 324.5 418.6000000000001 L 318.3 421.9000000000001 z M 244.1 406 L 234.79999999999998 418.9 L 238.99999999999997 441.59999999999997 L 233.19999999999996 440.59999999999997 L 230.09999999999997 424.09999999999997 L 227.39999999999998 439.49999999999994 L 221.89999999999998 438.49999999999994 L 228.09999999999997 403.09999999999997 L 233.59999999999997 404.09999999999997 L 231.89999999999998 413.9 L 238.29999999999998 404.9 L 244.1 406 z M 239.4 247.2 C 236.8 246 231.9 243.79999999999998 227.1 241.5 C 226.1 241.1 225 241.7 224.79999999999998 242.7 C 224.49999999999997 244.79999999999998 224.49999999999997 248.1 227.39999999999998 250.29999999999998 C 232.79999999999998 254.49999999999997 237.39999999999998 252.2 239.89999999999998 249.7 C 240.7 249 240.39999999999998 247.6 239.39999999999998 247.2 M 172.4 219 C 172.4 219 174.20000000000002 233.8 180.4 237.3 C 184.6 239.60000000000002 194.9 239.4 203.8 240.10000000000002 C 193.9 236.20000000000002 179.3 225.70000000000002 172.4 219.00000000000003 z M 245.6 307.7 L 250.6 314.4 L 261.4 314.4 L 266.4 307.7 z M 339.6 219 C 332.70000000000005 225.7 318.1 236.2 308.20000000000005 240 C 317.20000000000005 239.3 327.40000000000003 239.5 331.6 237.2 C 337.8 233.79999999999998 339.6 219 339.6 219 z M 266.3 268.5 L 261.5 252.8 L 256 255.5 L 250.5 252.8 L 245.7 268.5 C 245.7 268.5 244.1 274.7 237.29999999999998 279.1 L 234.39999999999998 292 L 241.59999999999997 301.7 L 249.19999999999996 301.7 L 242.09999999999997 291.3 L 243.19999999999996 284.90000000000003 C 246.39999999999995 288.3 250.99999999999997 290.50000000000006 255.99999999999997 290.50000000000006 C 261.09999999999997 290.50000000000006 265.59999999999997 288.30000000000007 268.79999999999995 284.90000000000003 L 269.9 291.3 L 262.79999999999995 301.7 L 270.4 301.7 L 277.59999999999997 292 L 274.7 279.1 C 267.9 274.70000000000005 266.3 268.5 266.3 268.5 M 284.9 241.5 C 280 243.7 275.2 246 272.59999999999997 247.2 C 271.59999999999997 247.7 271.29999999999995 249 272.09999999999997 249.79999999999998 C 274.59999999999997 252.2 279.2 254.6 284.59999999999997 250.39999999999998 C 287.49999999999994 248.2 287.49999999999994 244.89999999999998 287.2 242.79999999999998 C 287 241.7 285.9 241.1 284.9 241.49999999999997" stroke-linecap="round" />
</g>
</g>
</g>
</svg>