<?xml version="1.0" encoding="UTF-8" standalone="no" ?>
<!DOCTYPE svg PUBLIC "-//W3C//DTD SVG 1.1//EN" "http://www.w3.org/Graphics/SVG/1.1/DTD/svg11.dtd">
<svg xmlns="http://www.w3.org/2000/svg" xmlns:xlink="http://www.w3.org/1999/xlink" version="1.1" width="1080" height="1080" viewBox="0 0 1080 1080" xml:space="preserve">
<desc>Created with Fabric.js 5.2.4</desc>
<defs>
</defs>
<rect x="0" y="0" width="100%" height="100%" fill="transparent"></rect>
<g transform="matrix(1 0 0 1 540 540)" id="628bdb03-6c2c-4142-9497-ee40fdde4be8"  >
<rect style="stroke: none; stroke-width: 1; stroke-dasharray: none; stroke-linecap: butt; stroke-dashoffset: 0; stroke-linejoin: miter; stroke-miterlimit: 4; fill: rgb(255,255,255); fill-rule: nonzero; opacity: 1; visibility: hidden;" vector-effect="non-scaling-stroke"  x="-540" y="-540" rx="0" ry="0" width="1080" height="1080" />
</g>
<g transform="matrix(1 0 0 1 540 540)" id="d45d0ef5-78f6-4b7f-95aa-a3db9f8bc876"  >
</g>
<g transform="matrix(9.02 0 0 9.02 523.1 565.35)"  >
<g style="" vector-effect="non-scaling-stroke"   >
		<g transform="matrix(1 0 0 1 -0.05 -4.24)" id="Fill-1"  >
<path style="stroke: none; stroke-width: 1; stroke-dasharray: none; stroke-linecap: butt; stroke-dashoffset: 0; stroke-linejoin: miter; stroke-miterlimit: 4; fill: rgb(254,254,254); fill-rule: nonzero; opacity: 1;" vector-effect="non-scaling-stroke"  transform=" translate(-54.95, -55.6)" d="M 101.3 54.6 L 96.89999999999999 53.1 C 103.6 50.4 110.6 45 109.89999999999999 33.7 C 109.49999999999999 25.900000000000002 105.99999999999999 19.000000000000004 103.99999999999999 14.900000000000002 L 96.6 0.1 L 98.1 16.1 C 98.6 21.1 98.39999999999999 27.700000000000003 96.5 31.3 C 94 36.5 85.6 36 82.6 35.8 C 77.3 35.4 60.099999999999994 34.9 54.89999999999999 34.9 C 47.89999999999999 34.9 40.29999999999999 35.5 34.099999999999994 35.9 C 31.099999999999994 36.1 28.599999999999994 36.3 26.899999999999995 36.4 C 26.699999999999996 36.4 26.499999999999996 36.4 26.099999999999994 36.5 C 15.199999999999994 37.5 13.299999999999994 32.4 12.699999999999994 30.7 C 11.599999999999994 27.599999999999998 11.599999999999994 20.7 11.599999999999994 17.7 L 11.599999999999994 4.699999999999999 L 6 15.1 C 4.3 18.2 1.1 24.1 0 34 C -0.7 47.9 8 52 10.9 53.3 C 11.3 53.5 11.700000000000001 53.599999999999994 12.1 53.8 C 11.9 53.9 11.6 53.9 11.4 54 C 9.5 54.6 7.6000000000000005 55.5 7 55.8 L 3.7 57.4 L 5.800000000000001 60.4 C 6.1000000000000005 60.8 6.800000000000001 61.699999999999996 7.6000000000000005 62.5 C 9.600000000000001 64.4 14.600000000000001 67.5 20.7 66.8 C 22.8 66.5 24.5 66.2 25.799999999999997 65.8 C 25.999999999999996 66.5 26.299999999999997 67.2 26.499999999999996 67.8 C 28.399999999999995 72.39999999999999 32.599999999999994 81.3 34.199999999999996 84.4 C 35.3 86.4 36.3 88.30000000000001 37.099999999999994 89.7 L 36.99999999999999 89.8 C 36.79999999999999 90 36.699999999999996 90.1 36.49999999999999 90.3 L 35.79999999999999 91.2 L 35.79999999999999 92.2 C 35.79999999999999 93.2 35.49999999999999 101.8 41.49999999999999 108.2 L 41.99999999999999 108.7 L 42.599999999999994 108.9 C 45.39999999999999 110 48.99999999999999 111.10000000000001 54.89999999999999 111.10000000000001 C 60.89999999999999 111.10000000000001 65.89999999999999 109.7 67.89999999999999 108.7 L 68.49999999999999 108.4 L 68.89999999999999 108 C 72.89999999999999 103.2 74.69999999999999 96.2 74.8 93.3 L 74.89999999999999 93.2 L 74.8 93.2 L 74.7 92 L 73.60000000000001 90.9 C 73.4 90.7 73.2 90.5 73.00000000000001 90.2 C 73.40000000000002 89.4 73.90000000000002 88.3 74.50000000000001 87.10000000000001 L 74.60000000000001 86.9 C 74.9 86.2 75.2 85.60000000000001 75.4 85.30000000000001 C 76.9 82.30000000000001 81.5 72.60000000000001 83.2 68.10000000000001 C 83.60000000000001 67.10000000000001 83.9 66.30000000000001 84.2 65.7 C 85.5 66.10000000000001 87.2 66.5 89.3 66.7 C 95.39999999999999 67.3 101.2 63.6 103.2 60.800000000000004 C 103.3 60.7 103.5 60.50000000000001 103.60000000000001 60.300000000000004 L 106.30000000000001 57.1 L 102.60000000000001 55.4 C 102.4 55 102.1 54.9 101.3 54.6" stroke-linecap="round" />
</g>
		<g transform="matrix(1 0 0 1 0 1.15)" id="Fill-4"  >
<path style="stroke: none; stroke-width: 1; stroke-dasharray: none; stroke-linecap: butt; stroke-dashoffset: 0; stroke-linejoin: miter; stroke-miterlimit: 4; fill: rgb(45,41,37); fill-rule: nonzero; opacity: 1;" vector-effect="non-scaling-stroke"  transform=" translate(-75, -76.15)" d="M 127.3 49 C 126.89999999999999 41.7 123.6 35.2 121.7 31.3 L 121.5 30.8 L 120.7 29.1 L 120.9 31 C 121.10000000000001 33.6 121.7 42.5 119.10000000000001 47.6 C 115.80000000000001 54.5 106.10000000000001 53.800000000000004 102.9 53.6 L 102.7 53.6 C 97.5 53.300000000000004 80.4 52.6 75.2 52.7 C 68.3 52.7 60.7 53.300000000000004 54.6 53.7 C 51.6 53.900000000000006 49 54.1 47.300000000000004 54.2 C 47.2 54.2 47.00000000000001 54.2 46.7 54.300000000000004 C 38.1 55.1 32.7 52.6 30.6 46.800000000000004 C 28.9 43.1 29 36.1 29 32.7 L 29 31.700000000000003 L 29 30.300000000000004 L 28.3 31.500000000000004 C 26.7 34.5 23.700000000000003 40 22.700000000000003 49.2 C 22.1 60.1 27.8 64 32.1 66 C 36.6 68.1 41.2 68.4 42.7 68.5 L 42.800000000000004 68.5 L 42.800000000000004 68.5 C 43.1 68.6 43.50000000000001 68.6 43.800000000000004 68.6 C 44.300000000000004 68.6 44.800000000000004 68.6 45.300000000000004 68.69999999999999 C 44.50000000000001 68.89999999999999 43.400000000000006 68.99999999999999 42.50000000000001 69.19999999999999 C 41.50000000000001 69.39999999999999 40.60000000000001 69.49999999999999 40.10000000000001 69.6 C 39.10000000000001 69.8 34.80000000000001 70.8 32.400000000000006 71.6 C 30.400000000000006 72.3 28.300000000000004 73.3 28.300000000000004 73.3 L 27.900000000000006 73.5 L 28.200000000000006 73.8 C 28.200000000000006 73.8 28.900000000000006 74.8 29.700000000000006 75.6 C 31.200000000000006 77.1 35.50000000000001 79.8 40.60000000000001 79.1 C 44.70000000000001 78.6 46.900000000000006 77.6 47.70000000000001 77.19999999999999 C 48.00000000000001 78.1 48.60000000000001 80.1 49.20000000000001 81.69999999999999 C 51.00000000000001 86.29999999999998 55.20000000000001 94.99999999999999 56.80000000000001 97.99999999999999 C 58.10000000000001 100.49999999999999 59.30000000000001 102.59999999999998 60.20000000000001 104.09999999999998 L 60.50000000000001 104.59999999999998 C 60.20000000000001 105.49999999999999 59.60000000000001 106.09999999999998 59.10000000000001 106.59999999999998 C 59.00000000000001 106.69999999999997 58.900000000000006 106.79999999999998 58.80000000000001 106.89999999999998 L 58.70000000000001 106.99999999999997 L 58.70000000000001 107.09999999999997 C 58.70000000000001 107.89999999999996 58.50000000000001 115.49999999999997 63.60000000000001 121.09999999999997 L 63.70000000000001 121.19999999999996 L 63.80000000000001 121.19999999999996 C 66.4 122.19999999999996 69.70000000000002 123.19999999999996 75.10000000000001 123.19999999999996 C 80.60000000000001 123.19999999999996 85.2 121.89999999999996 86.9 121.09999999999997 L 87 121.09999999999997 L 87 120.99999999999997 C 90.6 116.69999999999997 92.2 110.39999999999998 92.3 107.99999999999997 L 92.3 107.89999999999998 L 92.2 107.79999999999998 C 92.10000000000001 107.69999999999999 92 107.59999999999998 91.9 107.49999999999999 C 91.30000000000001 106.99999999999999 90.60000000000001 106.29999999999998 90.30000000000001 104.69999999999999 C 90.70000000000002 103.89999999999999 91.60000000000001 102.19999999999999 92.30000000000001 100.69999999999999 C 92.70000000000002 99.89999999999999 93.00000000000001 99.19999999999999 93.20000000000002 98.79999999999998 C 94.70000000000002 95.79999999999998 99.20000000000002 86.29999999999998 100.90000000000002 81.79999999999998 C 102.00000000000001 78.99999999999999 102.60000000000002 77.49999999999999 102.90000000000002 76.89999999999998 C 103.70000000000002 77.29999999999998 105.80000000000003 78.29999999999998 109.80000000000003 78.69999999999997 C 115.00000000000003 79.19999999999997 119.90000000000002 75.79999999999997 121.20000000000003 73.89999999999998 C 121.40000000000003 73.59999999999998 121.80000000000003 73.09999999999998 121.80000000000003 73.09999999999998 L 122.10000000000002 72.69999999999997 L 121.70000000000002 72.49999999999997 C 121.70000000000002 72.49999999999997 121.50000000000001 72.39999999999998 120.70000000000002 72.09999999999997 L 117.90000000000002 71.09999999999997 L 115.10000000000002 70.09999999999997 C 114.30000000000003 69.79999999999997 110.80000000000003 69.09999999999997 108.30000000000003 68.49999999999997 L 106.40000000000002 68.09999999999997 L 107.00000000000001 67.99999999999997 C 112.5 67.2 128.2 64.5 127.3 49" stroke-linecap="round" />
</g>
		<g transform="matrix(1 0 0 1 -48.35 -35.3)" id="Fill-6"  >
<path style="stroke: none; stroke-width: 1; stroke-dasharray: none; stroke-linecap: butt; stroke-dashoffset: 0; stroke-linejoin: miter; stroke-miterlimit: 4; fill: rgb(194,31,50); fill-rule: nonzero; opacity: 1;" vector-effect="non-scaling-stroke"  transform=" translate(-26.65, -39.7)" d="M 24 45.9 C 24.9 41.5 26.3 37.3 28.2 33.3 L 28.2 33.3 L 28.3 33.3 L 28.3 33.3 L 28.3 33.4 L 28.3 33.3 L 28.400000000000002 33.3 L 28.400000000000002 33.4 C 28.3 34.6 28.3 35.8 28.3 37.1 C 28.3 40 28.5 43 29.2 45.7 L 29.3 46 L 29.1 45.8 C 28.200000000000003 45 27.400000000000002 44.199999999999996 26.5 43.4 C 25.7 44.3 25 45.199999999999996 24.2 46 L 24 46.1 L 24 45.9 z" stroke-linecap="round" />
</g>
		<g transform="matrix(1 0 0 1 48.5 -35.9)" id="Fill-8"  >
<path style="stroke: none; stroke-width: 1; stroke-dasharray: none; stroke-linecap: butt; stroke-dashoffset: 0; stroke-linejoin: miter; stroke-miterlimit: 4; fill: rgb(194,31,50); fill-rule: nonzero; opacity: 1;" vector-effect="non-scaling-stroke"  transform=" translate(-123.5, -39.1)" d="M 125.8 44 L 125.8 44 L 125.8 44 C 124.7 40.3 123.6 36.5 121.8 33 L 121.6 33 C 121.69999999999999 34.2 121.69999999999999 35.4 121.69999999999999 36.5 C 121.69999999999999 39.4 121.49999999999999 42.2 120.99999999999999 44.9 L 120.99999999999999 45.1 L 121.09999999999998 45 C 121.99999999999999 44.6 122.89999999999998 44 123.79999999999998 43.6 L 125.99999999999999 45.2 L 125.8 44 z" stroke-linecap="round" />
</g>
		<g transform="matrix(1 0 0 1 0.15 18.95)" id="Fill-10"  >
<path style="stroke: none; stroke-width: 1; stroke-dasharray: none; stroke-linecap: butt; stroke-dashoffset: 0; stroke-linejoin: miter; stroke-miterlimit: 4; fill: rgb(194,31,50); fill-rule: nonzero; opacity: 1;" vector-effect="non-scaling-stroke"  transform=" translate(-75.15, -93.95)" d="M 89.1 84.1 L 88.89999999999999 84.19999999999999 C 87.6 84.79999999999998 86.3 85.29999999999998 84.89999999999999 85.6 C 83.99999999999999 85.8 83.1 85.89999999999999 82.19999999999999 85.89999999999999 C 79.39999999999999 85.89999999999999 76.69999999999999 84.69999999999999 75.1 82.19999999999999 L 75 82.1 L 75 82.2 C 74.7 82.5 74.5 82.9 74.1 83.2 C 72.3 85.2 69.8 86 67.19999999999999 86 C 65.19999999999999 86 63.09999999999999 85.5 61.39999999999999 84.8 L 61.19999999999999 84.7 L 61.29999999999999 84.9 C 62.59999999999999 88.4 63.39999999999999 92.30000000000001 63.39999999999999 96.2 C 63.39999999999999 98 63.19999999999999 99.7 62.89999999999999 101.4 C 62.69999999999999 102.60000000000001 62.29999999999999 103.9 61.89999999999999 105.10000000000001 L 61.79999999999999 105.30000000000001 L 61.99999999999999 105.20000000000002 C 65.69999999999999 103.20000000000002 70.3 102.20000000000002 74.8 102.20000000000002 C 79.1 102.20000000000002 83.39999999999999 103.10000000000002 87 104.90000000000002 C 87.6 105.10000000000002 88.1 105.60000000000002 88.7 105.70000000000002 L 88.9 105.80000000000001 L 88.80000000000001 105.60000000000001 C 87.80000000000001 102.50000000000001 87.10000000000001 99.2 87.10000000000001 95.80000000000001 L 87.10000000000001 95.70000000000002 C 87.10000000000001 95.50000000000001 87.10000000000001 95.30000000000001 87.10000000000001 95.00000000000001 C 87.10000000000001 91.20000000000002 87.9 87.60000000000001 89.00000000000001 84.20000000000002 L 89.1 84.1 z" stroke-linecap="round" />
</g>
		<g transform="matrix(1 0 0 1 -19.75 11.97)" id="Fill-12"  >
<path style="stroke: none; stroke-width: 1; stroke-dasharray: none; stroke-linecap: butt; stroke-dashoffset: 0; stroke-linejoin: miter; stroke-miterlimit: 4; fill: rgb(194,31,50); fill-rule: nonzero; opacity: 1;" vector-effect="non-scaling-stroke"  transform=" translate(-55.25, -86.97)" d="M 52.6 87.7 C 52.2 87.2 51.9 86.7 51.800000000000004 86 L 51.800000000000004 85.8 L 52.00000000000001 85.89999999999999 C 52.70000000000001 86.3 53.400000000000006 86.49999999999999 54.20000000000001 86.49999999999999 C 55.80000000000001 86.49999999999999 57.40000000000001 85.69999999999999 58.60000000000001 84.89999999999999 L 58.70000000000001 84.89999999999999 L 58.70000000000001 84.99999999999999 L 58.70000000000001 84.99999999999999 L 58.5 85 L 58.6 84.9 L 58.6 84.9 L 58.6 84.9 C 58.4 86.5 57.9 88.30000000000001 56.2 88.9 C 55.900000000000006 89 55.7 89 55.5 89 C 54.3 89.2 53.3 88.5 52.6 87.7" stroke-linecap="round" />
</g>
		<g transform="matrix(1 0 0 1 20.1 11.8)" id="Fill-14"  >
<path style="stroke: none; stroke-width: 1; stroke-dasharray: none; stroke-linecap: butt; stroke-dashoffset: 0; stroke-linejoin: miter; stroke-miterlimit: 4; fill: rgb(194,31,50); fill-rule: nonzero; opacity: 1;" vector-effect="non-scaling-stroke"  transform=" translate(-95.1, -86.8)" d="M 92.3 87.1 C 91.89999999999999 86.6 91.7 86 91.6 85.3 L 91.6 85.1 L 91.8 85.19999999999999 C 92.6 85.89999999999999 93.7 86.19999999999999 94.8 86.19999999999999 C 96.1 86.19999999999999 97.39999999999999 85.79999999999998 98.39999999999999 85.19999999999999 L 98.6 85.1 L 98.5 85.3 C 98 86.7 96.8 88.2 95.2 88.5 C 95.10000000000001 88.5 94.9 88.5 94.8 88.5 C 93.7 88.5 92.8 88 92.3 87.1" stroke-linecap="round" />
</g>
		<g transform="matrix(1 0 0 1 17.6 20.45)" id="Fill-16"  >
<path style="stroke: none; stroke-width: 1; stroke-dasharray: none; stroke-linecap: butt; stroke-dashoffset: 0; stroke-linejoin: miter; stroke-miterlimit: 4; fill: rgb(194,31,50); fill-rule: nonzero; opacity: 1;" vector-effect="non-scaling-stroke"  transform=" translate(-92.6, -95.45)" d="M 94.2 89.2 C 94.4 89.2 94.60000000000001 89.3 94.8 89.3 C 95.39999999999999 89.3 95.89999999999999 89.1 96.5 89 L 96.7 88.9 L 96.60000000000001 89.10000000000001 C 94.50000000000001 94.30000000000001 92.00000000000001 99.4 89.4 104.4 L 89.30000000000001 104.60000000000001 L 89.20000000000002 104.4 C 88.70000000000002 103 88.50000000000001 101.4 88.50000000000001 99.80000000000001 C 88.50000000000001 98.60000000000001 88.60000000000001 97.50000000000001 88.70000000000002 96.30000000000001 C 89.10000000000002 92.9 89.90000000000002 89.70000000000002 90.90000000000002 86.50000000000001 L 91.00000000000001 86.30000000000001 L 91.10000000000001 86.50000000000001 C 91.7 87.8 92.8 89 94.2 89.2" stroke-linecap="round" />
</g>
		<g transform="matrix(1 0 0 1 -17.5 20.3)" id="Fill-18"  >
<path style="stroke: none; stroke-width: 1; stroke-dasharray: none; stroke-linecap: butt; stroke-dashoffset: 0; stroke-linejoin: miter; stroke-miterlimit: 4; fill: rgb(194,31,50); fill-rule: nonzero; opacity: 1;" vector-effect="non-scaling-stroke"  transform=" translate(-57.5, -95.3)" d="M 61.1 104.4 C 57.9 99.60000000000001 55.5 94.5 53.2 89.30000000000001 L 53.1 89.10000000000001 L 53.300000000000004 89.2 C 53.900000000000006 89.5 54.800000000000004 89.8 55.6 89.8 C 56.1 89.8 56.7 89.7 57.1 89.39999999999999 C 58.1 88.69999999999999 58.7 87.6 59.1 86.39999999999999 L 59.2 86.19999999999999 L 59.300000000000004 86.39999999999999 C 61.00000000000001 89.89999999999999 61.900000000000006 94.19999999999999 61.900000000000006 98.39999999999999 C 61.900000000000006 100.39999999999999 61.7 102.39999999999999 61.300000000000004 104.3 L 61.300000000000004 104.3 L 61.300000000000004 104.3 L 61.1 104.4 L 61.1 104.4 z" stroke-linecap="round" />
</g>
		<g transform="matrix(1 0 0 1 0.2 37.8)" id="Fill-20"  >
<path style="stroke: none; stroke-width: 1; stroke-dasharray: none; stroke-linecap: butt; stroke-dashoffset: 0; stroke-linejoin: miter; stroke-miterlimit: 4; fill: rgb(194,31,50); fill-rule: nonzero; opacity: 1;" vector-effect="non-scaling-stroke"  transform=" translate(-75.2, -112.8)" d="M 63.9 120.6 L 63.9 120.6 L 63.9 120.6 C 60.699999999999996 117 59.4 112.5 59.3 107.69999999999999 L 59.3 107.69999999999999 L 59.3 107.69999999999999 C 63.5 104.6 69.2 102.99999999999999 74.8 102.99999999999999 C 78.5 102.99999999999999 82.1 103.69999999999999 85.3 105.19999999999999 C 87.3 106.1 89.3 107.1 91.1 108.49999999999999 L 91 108.59999999999998 L 91.1 108.49999999999999 L 91.1 108.49999999999999 L 91.1 108.49999999999999 C 90.6 112.99999999999999 88.89999999999999 117.09999999999998 86.1 120.59999999999998 L 86.1 120.59999999999998 L 86.1 120.59999999999998 C 82.69999999999999 121.89999999999998 78.69999999999999 122.59999999999998 74.69999999999999 122.59999999999998 C 70.8 122.6 67.1 121.9 63.9 120.6" stroke-linecap="round" />
</g>
		<g transform="matrix(1 0 0 1 -0.25 -5.4)" id="Fill-22"  >
<path style="stroke: none; stroke-width: 1; stroke-dasharray: none; stroke-linecap: butt; stroke-dashoffset: 0; stroke-linejoin: miter; stroke-miterlimit: 4; fill: rgb(194,31,50); fill-rule: nonzero; opacity: 1;" vector-effect="non-scaling-stroke"  transform=" translate(-74.75, -69.6)" d="M 120.5 73 C 120.5 73 118.5 72.2 118 72 C 112.5 69.9 105.5 68.7 99.6 68.5 C 99 62 98.2 57.8 96.9 54.1 L 96.9 54 L 96.80000000000001 54 C 93.70000000000002 53.8 80.10000000000001 53.3 74.80000000000001 53.3 C 69.50000000000001 53.3 56.10000000000001 54.099999999999994 53.10000000000001 54.3 L 53.00000000000001 54.3 L 53.00000000000001 54.4 C 51.800000000000004 58 50.400000000000006 62.4 49.70000000000001 69 C 43.70000000000001 69.4 35.60000000000001 71.1 30.10000000000001 73.2 C 29.70000000000001 73.3 29.40000000000001 73.5 29.20000000000001 73.60000000000001 C 29.10000000000001 73.7 29.00000000000001 73.7 29.00000000000001 73.7 C 29.00000000000001 73.7 29.00000000000001 73.7 29.00000000000001 73.7 L 28.80000000000001 73.5 L 28.900000000000013 73.8 C 28.900000000000013 73.8 28.900000000000013 73.8 28.900000000000013 73.8 C 29.700000000000014 74.7 32.80000000000001 78.39999999999999 38.500000000000014 78.6 C 38.600000000000016 78.6 38.70000000000002 78.6 38.80000000000001 78.6 C 40.70000000000001 78.6 43.80000000000001 78.19999999999999 45.90000000000001 77.3 C 46.40000000000001 77.1 47.40000000000001 76.7 47.70000000000001 76.6 C 47.80000000000001 76.8 48.10000000000001 77.39999999999999 48.30000000000001 77.8 C 48.90000000000001 79.5 49.60000000000001 81.89999999999999 50.20000000000001 83 C 51.00000000000001 84.6 52.30000000000001 85.9 54.40000000000001 85.9 L 54.500000000000014 85.9 C 56.40000000000001 85.9 57.70000000000002 84.4 57.90000000000001 84.10000000000001 L 58.000000000000014 84.00000000000001 L 57.80000000000001 84.00000000000001 C 52.500000000000014 83.70000000000002 50.40000000000001 80.90000000000002 50.000000000000014 76.70000000000002 L 50.000000000000014 76.60000000000002 L 49.90000000000001 76.60000000000002 C 49.30000000000001 76.50000000000003 48.90000000000001 76.40000000000002 48.600000000000016 76.30000000000003 C 48.40000000000001 76.20000000000003 48.20000000000002 76.00000000000003 48.20000000000002 75.70000000000003 C 48.20000000000002 75.60000000000004 48.100000000000016 75.40000000000003 48.100000000000016 75.30000000000003 C 48.100000000000016 74.80000000000003 48.30000000000002 74.20000000000003 48.70000000000002 73.60000000000002 C 49.100000000000016 73.10000000000002 49.70000000000002 72.50000000000003 50.90000000000002 72.50000000000003 C 51.40000000000002 72.50000000000003 52.00000000000002 72.60000000000002 52.70000000000002 72.80000000000003 C 54.30000000000002 73.30000000000003 55.70000000000002 74.40000000000002 56.600000000000016 75.20000000000003 C 57.70000000000002 76.20000000000003 60.90000000000001 79.50000000000003 62.80000000000002 80.60000000000004 C 63.90000000000002 81.30000000000004 65.70000000000002 81.90000000000003 67.40000000000002 81.90000000000003 C 68.80000000000003 81.90000000000003 70.20000000000002 81.50000000000003 71.40000000000002 80.40000000000003 C 73.90000000000002 78.00000000000003 74.20000000000002 75.90000000000003 74.50000000000001 74.60000000000004 L 74.50000000000001 74.50000000000004 L 74.40000000000002 74.50000000000004 C 70.20000000000002 74.40000000000005 66.10000000000002 74.00000000000004 62.50000000000002 73.50000000000004 C 62.10000000000002 73.40000000000005 61.90000000000002 73.30000000000004 61.90000000000002 73.10000000000004 C 61.90000000000002 72.90000000000003 62.10000000000002 72.70000000000003 62.40000000000002 72.70000000000003 C 62.50000000000002 72.70000000000003 62.50000000000002 72.70000000000003 62.60000000000002 72.70000000000003 C 62.60000000000002 72.70000000000003 69.60000000000002 73.60000000000004 74.50000000000003 73.70000000000003 L 74.60000000000002 73.70000000000003 L 74.60000000000002 73.60000000000004 C 74.60000000000002 73.00000000000004 74.60000000000002 72.00000000000004 74.70000000000002 70.90000000000003 L 74.70000000000002 70.80000000000004 L 74.60000000000002 70.80000000000004 C 71.70000000000002 70.70000000000005 66.80000000000003 70.40000000000003 62.200000000000024 69.50000000000004 C 61.800000000000026 69.40000000000005 61.60000000000002 69.20000000000005 61.60000000000002 69.00000000000004 C 61.60000000000002 68.80000000000004 61.700000000000024 68.60000000000004 62.00000000000002 68.60000000000004 C 62.10000000000002 68.60000000000004 62.10000000000002 68.60000000000004 62.200000000000024 68.60000000000004 C 62.90000000000003 68.80000000000004 70.40000000000002 69.80000000000004 74.50000000000003 69.80000000000004 L 74.50000000000003 69.80000000000004 L 74.60000000000002 69.80000000000004 L 74.60000000000002 69.70000000000005 C 74.60000000000002 68.80000000000004 74.60000000000002 67.60000000000005 74.60000000000002 66.40000000000005 L 74.60000000000002 66.30000000000005 L 74.50000000000003 66.30000000000005 L 74.20000000000003 66.30000000000005 C 71.60000000000004 66.30000000000005 67.70000000000003 66.00000000000006 62.30000000000003 65.20000000000006 C 61.900000000000034 65.10000000000007 61.70000000000003 64.90000000000006 61.70000000000003 64.70000000000006 C 61.70000000000003 64.50000000000006 61.900000000000034 64.30000000000005 62.20000000000003 64.30000000000005 C 62.20000000000003 64.30000000000005 62.30000000000003 64.30000000000005 62.30000000000003 64.30000000000005 C 62.30000000000003 64.30000000000005 68.90000000000003 65.30000000000005 74.10000000000004 65.30000000000005 C 74.20000000000003 65.30000000000005 74.30000000000004 65.30000000000005 74.50000000000004 65.30000000000005 L 74.60000000000004 65.30000000000005 L 74.60000000000004 65.20000000000006 C 74.60000000000004 64.40000000000006 74.60000000000004 63.50000000000006 74.60000000000004 62.50000000000006 L 74.60000000000004 62.50000000000006 C 74.60000000000004 62.00000000000006 74.80000000000004 61.800000000000054 75.00000000000004 61.800000000000054 C 75.20000000000005 61.800000000000054 75.40000000000005 62.00000000000006 75.40000000000005 62.400000000000055 C 75.40000000000005 62.800000000000054 75.40000000000005 63.800000000000054 75.40000000000005 65.00000000000006 L 75.40000000000005 65.10000000000005 L 75.40000000000005 65.20000000000005 L 75.50000000000004 65.20000000000005 C 80.50000000000004 65.00000000000004 84.90000000000005 64.50000000000004 87.00000000000004 64.10000000000005 C 87.10000000000004 64.10000000000005 87.20000000000005 64.10000000000005 87.30000000000004 64.10000000000005 C 87.70000000000005 64.10000000000005 87.80000000000004 64.30000000000005 87.80000000000004 64.40000000000005 C 87.80000000000004 64.60000000000005 87.70000000000005 64.80000000000005 87.50000000000004 64.80000000000005 C 86.80000000000004 64.90000000000005 81.00000000000004 66.00000000000006 75.50000000000004 66.20000000000006 L 75.40000000000005 66.20000000000006 L 75.40000000000005 66.30000000000005 C 75.40000000000005 67.30000000000005 75.40000000000005 68.50000000000006 75.50000000000004 69.60000000000005 L 75.50000000000004 69.70000000000005 L 75.60000000000004 69.70000000000005 C 79.30000000000004 69.60000000000005 83.60000000000004 69.40000000000005 87.30000000000004 68.60000000000005 C 87.50000000000004 68.60000000000005 87.60000000000004 68.50000000000006 87.80000000000004 68.50000000000006 C 88.20000000000005 68.50000000000006 88.40000000000003 68.70000000000006 88.40000000000003 68.80000000000005 C 88.40000000000003 69.00000000000006 88.20000000000003 69.20000000000006 87.70000000000003 69.30000000000005 C 84.10000000000004 69.90000000000005 78.90000000000003 70.50000000000006 75.70000000000003 70.50000000000006 L 75.60000000000004 70.50000000000006 L 75.60000000000004 70.60000000000005 C 75.60000000000004 71.50000000000006 75.60000000000004 72.60000000000005 75.70000000000003 73.30000000000005 L 75.70000000000003 73.40000000000005 L 75.80000000000003 73.40000000000005 C 81.70000000000003 73.30000000000005 87.30000000000003 72.40000000000005 88.30000000000003 72.30000000000005 C 88.40000000000002 72.30000000000005 88.40000000000002 72.30000000000005 88.50000000000003 72.30000000000005 C 88.90000000000003 72.30000000000005 89.00000000000003 72.50000000000006 89.00000000000003 72.70000000000006 C 89.00000000000003 72.90000000000006 88.80000000000003 73.10000000000007 88.40000000000003 73.20000000000006 C 87.40000000000003 73.30000000000005 80.40000000000003 74.20000000000006 76.00000000000003 74.40000000000006 L 75.90000000000003 74.40000000000006 L 75.90000000000003 74.50000000000006 C 76.30000000000004 76.00000000000006 76.40000000000003 78.20000000000006 78.60000000000004 80.10000000000005 C 79.70000000000003 81.00000000000006 81.10000000000004 81.40000000000005 82.60000000000004 81.40000000000005 C 84.10000000000004 81.40000000000005 85.60000000000004 81.00000000000004 86.80000000000004 80.30000000000005 C 88.80000000000004 79.20000000000006 91.80000000000004 75.80000000000005 92.90000000000003 74.80000000000005 C 93.80000000000004 74.00000000000006 95.90000000000003 72.10000000000005 98.70000000000003 72.10000000000005 C 98.70000000000003 72.10000000000005 98.80000000000003 72.10000000000005 98.80000000000003 72.10000000000005 C 100.20000000000003 72.10000000000005 100.90000000000002 72.50000000000006 101.30000000000003 72.90000000000005 C 101.70000000000003 73.30000000000005 101.70000000000003 73.80000000000005 101.80000000000003 74.00000000000004 C 101.90000000000002 74.20000000000005 101.90000000000002 74.40000000000005 101.90000000000002 74.60000000000004 C 101.90000000000002 74.90000000000003 101.80000000000003 75.30000000000004 101.40000000000002 75.50000000000004 C 100.90000000000002 75.80000000000004 100.50000000000001 75.70000000000005 99.90000000000002 76.00000000000004 L 99.90000000000002 76.00000000000004 L 99.90000000000002 76.00000000000004 C 99.50000000000001 78.30000000000004 98.80000000000003 81.00000000000004 97.00000000000001 82.30000000000004 C 96.00000000000001 83.00000000000004 94.80000000000001 83.50000000000004 93.70000000000002 83.70000000000005 C 92.8 84 92 84 92 84 L 91.8 84 L 91.89999999999999 84.1 C 91.89999999999999 84.1 92.3 84.6 92.49999999999999 84.69999999999999 C 92.79999999999998 84.99999999999999 93.69999999999999 85.39999999999999 94.89999999999999 85.39999999999999 C 94.99999999999999 85.39999999999999 95.19999999999999 85.39999999999999 95.3 85.39999999999999 C 96.6 85.3 98.1 84.3 98.8 83.6 C 99.8 82.3 100.7 79.69999999999999 101.3 78 C 101.5 77.4 102.1 76.4 102.3 75.8 C 102.8 76.1 103.2 76.2 104.2 76.6 C 106.3 77.5 109 77.8 110.9 77.8 C 111 77.8 111.10000000000001 77.8 111.2 77.8 C 114.2 77.7 117.5 75.89999999999999 119.60000000000001 74 C 120.00000000000001 73.7 120.60000000000001 72.9 120.60000000000001 72.8 L 120.7 72.7 L 120.5 73 z" stroke-linecap="round" />
</g>
		<g transform="matrix(1 0 0 1 6.9 35.6)" id="Fill-24"  >
<path style="stroke: none; stroke-width: 1; stroke-dasharray: none; stroke-linecap: butt; stroke-dashoffset: 0; stroke-linejoin: miter; stroke-miterlimit: 4; fill: rgb(45,41,37); fill-rule: nonzero; opacity: 1;" vector-effect="non-scaling-stroke"  transform=" translate(-81.9, -110.6)" d="M 78 109.5 C 77.7 110 77.5 110.6 77.5 111.2 C 77.5 112.2 77.9 113.2 78.4 114 C 78.4 114 78.5 114.1 78.5 114.1 C 78.6 114.1 78.6 114.1 78.7 114 L 78.7 114 C 78.7 113.4 78.3 112.9 78.3 112.3 C 78.3 112.2 78.3 112 78.39999999999999 111.8 L 78.49999999999999 111.6 L 78.59999999999998 111.8 C 79.19999999999997 112.8 80.09999999999998 113.39999999999999 81.09999999999998 113.7 C 81.49999999999999 113.8 81.89999999999998 113.8 82.19999999999997 113.8 C 83.49999999999997 113.8 84.69999999999997 113.2 85.59999999999998 112.2 C 85.99999999999999 111.60000000000001 86.29999999999998 110.9 86.29999999999998 110.2 C 86.29999999999998 109.9 86.19999999999999 109.5 86.09999999999998 109.2 C 85.49999999999999 108 84.19999999999997 107.3 82.99999999999999 107.10000000000001 C 82.79999999999998 107.10000000000001 82.59999999999998 107.10000000000001 82.39999999999999 107.10000000000001 C 80.6 107.1 78.9 107.9 78 109.5" stroke-linecap="round" />
</g>
		<g transform="matrix(1 0 0 1 -7.3 35.95)" id="Fill-26"  >
<path style="stroke: none; stroke-width: 1; stroke-dasharray: none; stroke-linecap: butt; stroke-dashoffset: 0; stroke-linejoin: miter; stroke-miterlimit: 4; fill: rgb(45,41,37); fill-rule: nonzero; opacity: 1;" vector-effect="non-scaling-stroke"  transform=" translate(-67.7, -110.95)" d="M 71 114.5 C 71.1 114.5 71.2 114.4 71.3 114.2 C 71.8 113.5 72.1 112.5 72.1 111.5 C 72.1 110.9 72 110.3 71.6 109.7 L 71.69999999999999 109.7 L 71.6 109.7 C 71.1 108.7 70.1 108 69.1 107.7 C 68.5 107.5 68 107.4 67.39999999999999 107.4 C 65.99999999999999 107.4 64.69999999999999 107.9 63.79999999999999 109.10000000000001 C 63.49999999999999 109.50000000000001 63.29999999999999 110.10000000000001 63.29999999999999 110.60000000000001 C 63.29999999999999 110.9 63.29999999999999 111.2 63.39999999999999 111.50000000000001 C 63.89999999999999 112.80000000000001 65.1 113.80000000000001 66.3 114.00000000000001 C 66.6 114.10000000000001 66.89999999999999 114.10000000000001 67.1 114.10000000000001 C 68.6 114.10000000000001 69.89999999999999 113.4 70.8 112.10000000000001 L 70.89999999999999 112.00000000000001 L 70.99999999999999 112.10000000000001 C 70.99999999999999 112.2 71.09999999999998 112.30000000000001 71.09999999999998 112.4 C 71.09999999999998 112.7 70.99999999999999 112.9 70.99999999999999 113.10000000000001 C 70.99999999999999 113.50000000000001 70.69999999999999 113.80000000000001 70.69999999999999 114.00000000000001 C 70.69999999999999 114.10000000000001 70.69999999999999 114.20000000000002 70.79999999999998 114.30000000000001 C 70.9 114.5 70.9 114.5 71 114.5" stroke-linecap="round" />
</g>
		<g transform="matrix(1 0 0 1 -0.05 42.95)" id="Fill-28"  >
<path style="stroke: none; stroke-width: 1; stroke-dasharray: none; stroke-linecap: butt; stroke-dashoffset: 0; stroke-linejoin: miter; stroke-miterlimit: 4; fill: rgb(45,41,37); fill-rule: nonzero; opacity: 1;" vector-effect="non-scaling-stroke"  transform=" translate(-74.95, -117.95)" d="M 64.2 119.4 C 67.5 118 71.3 117.2 75.2 117.2 C 78.10000000000001 117.2 81 117.7 83.60000000000001 118.60000000000001 C 84.30000000000001 118.9 84.9 119.10000000000001 85.60000000000001 119.30000000000001 C 85.80000000000001 119.10000000000001 85.80000000000001 119.00000000000001 86.00000000000001 118.80000000000001 C 82.80000000000001 117.20000000000002 79.10000000000001 116.50000000000001 75.30000000000001 116.50000000000001 C 71.30000000000001 116.50000000000001 67.30000000000001 117.30000000000001 63.90000000000001 118.80000000000001 C 64 119.2 64.1 119.3 64.2 119.4" stroke-linecap="round" />
</g>
		<g transform="matrix(1 0 0 1 0.55 17.85)" id="Fill-30"  >
<path style="stroke: none; stroke-width: 1; stroke-dasharray: none; stroke-linecap: butt; stroke-dashoffset: 0; stroke-linejoin: miter; stroke-miterlimit: 4; fill: rgb(45,41,37); fill-rule: nonzero; opacity: 1;" vector-effect="non-scaling-stroke"  transform=" translate(-75.55, -92.85)" d="M 67.1 95.4 C 69 97.80000000000001 72 98.9 74.89999999999999 98.9 C 75.99999999999999 98.9 77.1 98.80000000000001 78.19999999999999 98.5 C 83.19999999999999 97.1 86.1 91.7 87.19999999999999 87 C 87.1 86.9 86.89999999999999 86.8 86.69999999999999 86.8 C 86.1 89.6 84.89999999999999 92.3 83.1 94.6 C 81 97.19999999999999 77.89999999999999 98.39999999999999 74.89999999999999 98.39999999999999 C 73.8 98.39999999999999 72.69999999999999 98.19999999999999 71.69999999999999 97.89999999999999 C 67.19999999999999 96.49999999999999 64.79999999999998 91.49999999999999 64.39999999999999 86.99999999999999 C 64.19999999999999 86.99999999999999 64.1 86.99999999999999 63.89999999999999 87.09999999999998 C 64.2 90.2 65.1 93 67.1 95.4" stroke-linecap="round" />
</g>
		<g transform="matrix(1 0 0 1 -37.13 -18.77)" id="Fill-32"  >
<path style="stroke: none; stroke-width: 1; stroke-dasharray: none; stroke-linecap: butt; stroke-dashoffset: 0; stroke-linejoin: miter; stroke-miterlimit: 4; fill: rgb(254,254,254); fill-rule: nonzero; opacity: 1;" vector-effect="non-scaling-stroke"  transform=" translate(-37.87, -56.23)" d="M 30.2 48.7 C 32.8 53.7 38 55.300000000000004 43.4 55.1 C 46.4 55.1 49.199999999999996 54.800000000000004 52.2 54.6 L 52.2 54.800000000000004 C 50.7 59.00000000000001 49.7 63.300000000000004 49.1 67.80000000000001 C 41.4 68.10000000000001 33.5 67.50000000000001 27.8 62.30000000000001 C 23.900000000000002 58.40000000000001 23 53.000000000000014 23.8 47.70000000000001 C 24.7 46.60000000000001 25.7 45.70000000000001 26.6 44.60000000000001 C 27.8 45.8 29.8 46.9 30.2 48.7" stroke-linecap="round" />
</g>
		<g transform="matrix(1 0 0 1 37.12 -18.6)" id="Fill-34"  >
<path style="stroke: none; stroke-width: 1; stroke-dasharray: none; stroke-linecap: butt; stroke-dashoffset: 0; stroke-linejoin: miter; stroke-miterlimit: 4; fill: rgb(254,254,254); fill-rule: nonzero; opacity: 1;" vector-effect="non-scaling-stroke"  transform=" translate(-112.12, -56.4)" d="M 126.2 46.5 C 126.4 47.3 126.4 48 126.5 48.8 C 126.9 54.699999999999996 124.3 60.199999999999996 119.2 63.199999999999996 C 113.7 66.5 107.2 67.69999999999999 100.4 67.89999999999999 C 100.30000000000001 67.3 100.2 66.49999999999999 100.10000000000001 65.8 C 99.60000000000001 61.9 98.80000000000001 57.9 97.7 54.199999999999996 C 105 54.099999999999994 113.80000000000001 55.99999999999999 118.6 49.4 C 119.19999999999999 48.5 119.89999999999999 47.6 120.39999999999999 46.6 C 121.49999999999999 46.1 122.49999999999999 45.4 123.6 44.9 C 124.6 45.3 125.3 46 126.2 46.5" stroke-linecap="round" />
</g>
		<g transform="matrix(1 0 0 1 20.58 4.7)" id="Fill-36"  >
<path style="stroke: none; stroke-width: 1; stroke-dasharray: none; stroke-linecap: butt; stroke-dashoffset: 0; stroke-linejoin: miter; stroke-miterlimit: 4; fill: rgb(254,254,254); fill-rule: nonzero; opacity: 1;" vector-effect="non-scaling-stroke"  transform=" translate(-95.58, -79.7)" d="M 98.5 76.5 C 98.5 78.8 97.8 81.1 95.8 82.2 C 94.8 82.7 93.7 82.9 92.7 82.9 C 92.7 82.7 92.60000000000001 82.5 92.7 82.2 C 94.4 82.3 96 81.60000000000001 96.8 80.3 C 97.39999999999999 79.3 97.6 78.1 97.7 76.89999999999999 C 97.9 76.7 98.2 76.6 98.5 76.5" stroke-linecap="round" />
</g>
		<g transform="matrix(1 0 0 1 -20.74 4.8)" id="Fill-38"  >
<path style="stroke: none; stroke-width: 1; stroke-dasharray: none; stroke-linecap: butt; stroke-dashoffset: 0; stroke-linejoin: miter; stroke-miterlimit: 4; fill: rgb(254,254,254); fill-rule: nonzero; opacity: 1;" vector-effect="non-scaling-stroke"  transform=" translate(-54.26, -79.8)" d="M 57.4 82.7 C 57.1 82.8 57 82.8 56.4 82.7 C 53.699999999999996 82.7 50.9 80.60000000000001 51.1 76.9 C 51.4 76.80000000000001 51.800000000000004 76.80000000000001 52.1 76.9 C 52.1 79 52.9 81.80000000000001 57.300000000000004 81.80000000000001 C 57.6 82.3 57.3 82.4 57.4 82.7" stroke-linecap="round" />
</g>
		<g transform="matrix(1 0 0 1 0 0)" id="Rectangle"  >
<rect style="stroke: none; stroke-width: 1; stroke-dasharray: none; stroke-linecap: butt; stroke-dashoffset: 0; stroke-linejoin: miter; stroke-miterlimit: 4; fill: none; fill-rule: nonzero; opacity: 1;" vector-effect="non-scaling-stroke"  x="-75" y="-75" rx="0" ry="0" width="150" height="150" />
</g>
</g>
</g>
</svg>