<?xml version="1.0" encoding="UTF-8" standalone="no" ?>
<!DOCTYPE svg PUBLIC "-//W3C//DTD SVG 1.1//EN" "http://www.w3.org/Graphics/SVG/1.1/DTD/svg11.dtd">
<svg xmlns="http://www.w3.org/2000/svg" xmlns:xlink="http://www.w3.org/1999/xlink" version="1.1" width="1080" height="1080" viewBox="0 0 1080 1080" xml:space="preserve">
<desc>Created with Fabric.js 5.2.4</desc>
<defs>
</defs>
<rect x="0" y="0" width="100%" height="100%" fill="transparent"></rect>
<g transform="matrix(1 0 0 1 540 540)" id="628bdb03-6c2c-4142-9497-ee40fdde4be8"  >
<rect style="stroke: none; stroke-width: 1; stroke-dasharray: none; stroke-linecap: butt; stroke-dashoffset: 0; stroke-linejoin: miter; stroke-miterlimit: 4; fill: rgb(255,255,255); fill-rule: nonzero; opacity: 1; visibility: hidden;" vector-effect="non-scaling-stroke"  x="-540" y="-540" rx="0" ry="0" width="1080" height="1080" />
</g>
<g transform="matrix(1 0 0 1 540 540)" id="d45d0ef5-78f6-4b7f-95aa-a3db9f8bc876"  >
</g>
<g transform="matrix(2.4 0 0 2.4 524.79 540)"  >
<g style="" vector-effect="non-scaling-stroke"   >
		<g transform="matrix(1 0 0 1 0 0)"  >
<circle style="stroke: none; stroke-width: 1; stroke-dasharray: none; stroke-linecap: butt; stroke-dashoffset: 0; stroke-linejoin: miter; stroke-miterlimit: 4; fill: rgb(206,14,45); fill-rule: nonzero; opacity: 1;" vector-effect="non-scaling-stroke"  cx="0" cy="0" r="200" />
</g>
		<g transform="matrix(1 0 0 1 0 0)"  >
<circle style="stroke: none; stroke-width: 1; stroke-dasharray: none; stroke-linecap: butt; stroke-dashoffset: 0; stroke-linejoin: miter; stroke-miterlimit: 4; fill: rgb(10,34,64); fill-rule: nonzero; opacity: 1;" vector-effect="non-scaling-stroke"  cx="0" cy="0" r="190" />
</g>
		<g transform="matrix(1 0 0 1 0 0)"  >
<circle style="stroke: none; stroke-width: 1; stroke-dasharray: none; stroke-linecap: butt; stroke-dashoffset: 0; stroke-linejoin: miter; stroke-miterlimit: 4; fill: rgb(58,141,222); fill-rule: nonzero; opacity: 1;" vector-effect="non-scaling-stroke"  cx="0" cy="0" r="138.7" />
</g>
		<g transform="matrix(1 0 0 1 0 0)"  >
<circle style="stroke: none; stroke-width: 1; stroke-dasharray: none; stroke-linecap: butt; stroke-dashoffset: 0; stroke-linejoin: miter; stroke-miterlimit: 4; fill: rgb(255,255,255); fill-rule: nonzero; opacity: 1;" vector-effect="non-scaling-stroke"  cx="0" cy="0" r="133.2" />
</g>
		<g transform="matrix(1 0 0 1 -123.41 108.73)"  >
<path style="stroke: none; stroke-width: 1; stroke-dasharray: none; stroke-linecap: butt; stroke-dashoffset: 0; stroke-linejoin: miter; stroke-miterlimit: 4; fill: rgb(255,255,255); fill-rule: nonzero; opacity: 1;" vector-effect="non-scaling-stroke"  transform=" translate(-173.59, -331.73)" d="M 165.2 322 C 171.29999999999998 316.7 178.39999999999998 318.3 183.1 323.8 C 185 326 186.29999999999998 328.7 186.6 330.90000000000003 L 183.29999999999998 333.70000000000005 L 183.1 333.50000000000006 C 183.29999999999998 330.90000000000003 182.5 328.50000000000006 180.9 326.70000000000005 C 178.4 323.80000000000007 175 323.1 172.20000000000002 325.50000000000006 L 167.9 329.20000000000005 C 164.9 331.70000000000005 164.9 335.1 167.5 338.20000000000005 C 169.1 340.1 171.3 341.20000000000005 174.2 341.6 L 174.39999999999998 341.8 L 171.09999999999997 344.7 C 168.69999999999996 344.09999999999997 166.29999999999995 342.4 164.29999999999995 340.09999999999997 C 159.4 334.4 159 327.2 165.2 322 z" stroke-linecap="round" />
</g>
		<g transform="matrix(1 0 0 1 -98.45 134.1)"  >
<path style="stroke: none; stroke-width: 1; stroke-dasharray: none; stroke-linecap: butt; stroke-dashoffset: 0; stroke-linejoin: miter; stroke-miterlimit: 4; fill: rgb(255,255,255); fill-rule: nonzero; opacity: 1;" vector-effect="non-scaling-stroke"  transform=" translate(-198.55, -357.1)" d="M 200.4 346.1 C 200.8 345.20000000000005 201 344.1 201 342.40000000000003 L 201.2 342.1 L 208.1 347 L 196.5 363.3 L 205.6 369.7 L 202.6 372.09999999999997 L 189 362.4 L 199.5 347.59999999999997 C 199.9 347.2 200.2 346.6 200.4 346.1 z" stroke-linecap="round" />
</g>
		<g transform="matrix(1 0 0 1 -64.5 151.05)"  >
<path style="stroke: none; stroke-width: 1; stroke-dasharray: none; stroke-linecap: butt; stroke-dashoffset: 0; stroke-linejoin: miter; stroke-miterlimit: 4; fill: rgb(255,255,255); fill-rule: nonzero; opacity: 1;" vector-effect="non-scaling-stroke"  transform=" translate(-232.5, -374.05)" d="M 232.5 365.5 C 232.7 364.5 232.6 363.4 232.3 361.8 L 232.4 361.5 L 240.20000000000002 364.8 L 230.9 386.6 L 224.8 384 L 231.9 367.3 C 232.2 366.6 232.4 366 232.5 365.5 z" stroke-linecap="round" />
</g>
		<g transform="matrix(1 0 0 1 -28.86 160.65)"  >
<path style="stroke: none; stroke-width: 1; stroke-dasharray: none; stroke-linecap: butt; stroke-dashoffset: 0; stroke-linejoin: miter; stroke-miterlimit: 4; fill: rgb(255,255,255); fill-rule: nonzero; opacity: 1;" vector-effect="non-scaling-stroke"  transform=" translate(-268.14, -383.65)" d="M 259.5 375.1 C 259.5 374.1 259.2 373 258.5 371.5 L 258.6 371.2 L 272 373.59999999999997 C 277.9 374.7 280.9 378.29999999999995 279.9 383.49999999999994 C 279 388.69999999999993 274.9 391.19999999999993 269 390.09999999999997 L 263.9 389.2 L 262.7 396.09999999999997 L 256.2 394.9 L 259.4 377.09999999999997 C 259.5 376.3 259.5 375.7 259.5 375.1 z M 268.6 386.4 C 270.8 386.79999999999995 272.3 386 272.70000000000005 383.7 L 273.20000000000005 380.8 C 273.6 378.5 272.50000000000006 377.3 270.30000000000007 376.90000000000003 L 266.20000000000005 376.20000000000005 L 264.50000000000006 385.6 L 268.6 386.4 z" stroke-linecap="round" />
</g>
		<g transform="matrix(1 0 0 1 13.52 164.32)"  >
<path style="stroke: none; stroke-width: 1; stroke-dasharray: none; stroke-linecap: butt; stroke-dashoffset: 0; stroke-linejoin: miter; stroke-miterlimit: 4; fill: rgb(255,255,255); fill-rule: nonzero; opacity: 1;" vector-effect="non-scaling-stroke"  transform=" translate(-310.52, -387.32)" d="M 300.5 379.6 C 300.2 378.6 299.6 377.70000000000005 298.6 376.40000000000003 L 298.6 376.1 L 312.20000000000005 375 C 318.20000000000005 374.5 322.00000000000006 377.3 322.40000000000003 382.5 C 322.8 387.8 319.6 391.2 313.6 391.7 L 308.40000000000003 392.09999999999997 L 309.00000000000006 399.09999999999997 L 302.40000000000003 399.7 L 300.90000000000003 381.59999999999997 C 300.8 380.7 300.7 380.1 300.5 379.6 z M 312.3 388.1 C 314.5 387.90000000000003 315.7 386.8 315.5 384.5 L 315.3 381.6 C 315.1 379.3 313.7 378.40000000000003 311.5 378.6 L 307.4 379 L 308.2 388.5 L 312.3 388.1 z" stroke-linecap="round" />
</g>
		<g transform="matrix(1 0 0 1 54.7 155.05)"  >
<path style="stroke: none; stroke-width: 1; stroke-dasharray: none; stroke-linecap: butt; stroke-dashoffset: 0; stroke-linejoin: miter; stroke-miterlimit: 4; fill: rgb(255,255,255); fill-rule: nonzero; opacity: 1;" vector-effect="non-scaling-stroke"  transform=" translate(-351.7, -378.05)" d="M 341.4 373.2 C 340.9 372.3 340.09999999999997 371.59999999999997 338.7 370.59999999999997 L 338.59999999999997 370.29999999999995 L 356.29999999999995 363.99999999999994 L 358.49999999999994 367.09999999999997 L 347.79999999999995 370.9 L 349.79999999999995 376.5 L 357.99999999999994 373.6 L 358.29999999999995 377.3 L 350.99999999999994 379.90000000000003 L 353.29999999999995 386.40000000000003 L 364.59999999999997 382.40000000000003 L 364.79999999999995 386.20000000000005 L 348.29999999999995 392.1 L 342.19999999999993 375 C 341.9 374.2 341.7 373.7 341.4 373.2 z" stroke-linecap="round" />
</g>
		<g transform="matrix(1 0 0 1 93.35 136.5)"  >
<path style="stroke: none; stroke-width: 1; stroke-dasharray: none; stroke-linecap: butt; stroke-dashoffset: 0; stroke-linejoin: miter; stroke-miterlimit: 4; fill: rgb(255,255,255); fill-rule: nonzero; opacity: 1;" vector-effect="non-scaling-stroke"  transform=" translate(-390.35, -359.5)" d="M 377.2 357.6 C 376.4 356.90000000000003 375.5 356.40000000000003 373.9 355.8 L 373.7 355.5 L 385.5 347.3 C 390.2 344.1 394.5 344.40000000000003 397.1 348.1 C 399.20000000000005 351.1 398.8 354.40000000000003 396.20000000000005 357.20000000000005 L 407.00000000000006 361.20000000000005 L 400.40000000000003 365.80000000000007 L 390.50000000000006 361.80000000000007 L 389.00000000000006 362.80000000000007 L 394.1000000000001 370.1000000000001 L 388.7000000000001 373.9000000000001 L 378.4 359 C 378 358.4 377.6 358 377.2 357.6 z M 391.3 357.2 C 392.8 356.2 393.2 354.8 392.1 353.2 L 390.90000000000003 351.4 C 389.8 349.79999999999995 388.3 349.7 386.8 350.79999999999995 L 382.7 353.59999999999997 L 387.2 359.99999999999994 L 391.3 357.2 z" stroke-linecap="round" />
</g>
		<g transform="matrix(1 0 0 1 125.07 107.55)"  >
<path style="stroke: none; stroke-width: 1; stroke-dasharray: none; stroke-linecap: butt; stroke-dashoffset: 0; stroke-linejoin: miter; stroke-miterlimit: 4; fill: rgb(255,255,255); fill-rule: nonzero; opacity: 1;" vector-effect="non-scaling-stroke"  transform=" translate(-422.07, -330.55)" d="M 423.2 344.1 L 419.8 341.20000000000005 L 420 341.00000000000006 C 423.2 340.6000000000001 426 338.80000000000007 428 336.50000000000006 C 430 334.20000000000005 430.6 332.1000000000001 429.1 330.80000000000007 C 428.1 330.00000000000006 427 329.9000000000001 425.40000000000003 331.00000000000006 L 420.8 334.00000000000006 C 417.3 336.20000000000005 414.3 336.6000000000001 411.8 334.50000000000006 C 408.5 331.70000000000005 408.6 326.70000000000005 412.8 321.80000000000007 C 414.8 319.50000000000006 417.2 317.70000000000005 419.5 317.00000000000006 L 422.7 319.80000000000007 L 422.5 320.00000000000006 C 419.9 320.20000000000005 417.3 321.90000000000003 415.5 324.00000000000006 C 413.8 326.00000000000006 413.2 328.00000000000006 414.4 329.1000000000001 C 415.29999999999995 329.80000000000007 416.5 329.6000000000001 417.9 328.7000000000001 L 422.59999999999997 325.7000000000001 C 426.29999999999995 323.3000000000001 429.49999999999994 322.9000000000001 432.29999999999995 325.3000000000001 C 436.09999999999997 328.60000000000014 435.09999999999997 333.90000000000015 430.99999999999994 338.7000000000001 C 428.7 341.2 425.7 343.5 423.2 344.1 z" stroke-linecap="round" />
</g>
		<g transform="matrix(1 0 0 1 -152.55 -58.9)"  >
<path style="stroke: none; stroke-width: 1; stroke-dasharray: none; stroke-linecap: butt; stroke-dashoffset: 0; stroke-linejoin: miter; stroke-miterlimit: 4; fill: rgb(255,255,255); fill-rule: nonzero; opacity: 1;" vector-effect="non-scaling-stroke"  transform=" translate(-144.45, -164.1)" d="M 133.9 165.6 C 132.9 165.4 131.8 165.5 130.20000000000002 165.9 L 129.9 165.8 L 133.1 158 L 151.7 165.5 L 155.89999999999998 155.2 L 158.99999999999997 157.6 L 152.59999999999997 173 L 135.79999999999995 166.2 C 135.1 165.9 134.5 165.7 133.9 165.6 z" stroke-linecap="round" />
</g>
		<g transform="matrix(1 0 0 1 -133.7 -95.75)"  >
<path style="stroke: none; stroke-width: 1; stroke-dasharray: none; stroke-linecap: butt; stroke-dashoffset: 0; stroke-linejoin: miter; stroke-miterlimit: 4; fill: rgb(255,255,255); fill-rule: nonzero; opacity: 1;" vector-effect="non-scaling-stroke"  transform=" translate(-163.3, -127.25)" d="M 155.8 137.7 C 149.70000000000002 133.29999999999998 148.70000000000002 126.29999999999998 153.20000000000002 119.99999999999999 C 157.70000000000002 113.69999999999999 164.70000000000002 112.39999999999999 170.8 116.79999999999998 C 176.9 121.19999999999999 177.9 128.2 173.4 134.49999999999997 C 168.9 140.8 161.9 142.1 155.8 137.7 z M 170.4 132.4 C 172.5 129.5 172 126.5 169 124.4 L 164.1 120.9 C 161.1 118.80000000000001 158.1 119.30000000000001 156.1 122.2 C 154 125.10000000000001 154.5 128.1 157.5 130.2 L 162.4 133.7 C 165.4 135.8 168.4 135.2 170.4 132.4 z" stroke-linecap="round" />
</g>
		<g transform="matrix(1 0 0 1 -106.08 -125.1)"  >
<path style="stroke: none; stroke-width: 1; stroke-dasharray: none; stroke-linecap: butt; stroke-dashoffset: 0; stroke-linejoin: miter; stroke-miterlimit: 4; fill: rgb(255,255,255); fill-rule: nonzero; opacity: 1;" vector-effect="non-scaling-stroke"  transform=" translate(-190.92, -97.9)" d="M 189.6 111.7 L 186.79999999999998 108.3 L 186.99999999999997 108.1 C 190.19999999999996 108.3 193.19999999999996 106.89999999999999 195.59999999999997 104.89999999999999 C 197.89999999999998 102.89999999999999 198.89999999999998 100.89999999999999 197.59999999999997 99.39999999999999 C 196.79999999999995 98.39999999999999 195.59999999999997 98.19999999999999 193.89999999999998 98.99999999999999 L 188.89999999999998 101.19999999999999 C 185.09999999999997 102.89999999999999 182.09999999999997 102.69999999999999 179.99999999999997 100.19999999999999 C 177.19999999999996 96.89999999999999 178.09999999999997 91.99999999999999 182.99999999999997 87.79999999999998 C 185.29999999999998 85.79999999999998 187.99999999999997 84.49999999999999 190.39999999999998 84.09999999999998 L 193.2 87.39999999999998 L 193 87.59999999999998 C 190.4 87.39999999999998 187.5 88.69999999999997 185.5 90.39999999999998 C 183.5 92.09999999999998 182.6 93.99999999999997 183.6 95.19999999999997 C 184.4 96.09999999999998 185.6 96.09999999999998 187.1 95.39999999999998 L 192.2 93.19999999999997 C 196.2 91.39999999999998 199.5 91.59999999999998 201.79999999999998 94.39999999999998 C 204.99999999999997 98.29999999999998 203.2 103.29999999999998 198.39999999999998 107.39999999999998 C 195.5 109.7 192.2 111.5 189.6 111.7 z" stroke-linecap="round" />
</g>
		<g transform="matrix(1 0 0 1 -40.45 -157.3)"  >
<path style="stroke: none; stroke-width: 1; stroke-dasharray: none; stroke-linecap: butt; stroke-dashoffset: 0; stroke-linejoin: miter; stroke-miterlimit: 4; fill: rgb(255,255,255); fill-rule: nonzero; opacity: 1;" vector-effect="non-scaling-stroke"  transform=" translate(-256.55, -65.7)" d="M 244.6 54.8 L 244.5 54.5 L 253.6 52 L 269.6 72.2 L 262.70000000000005 74.10000000000001 L 259.50000000000006 70.00000000000001 L 248.30000000000007 73.10000000000001 L 247.60000000000008 78.30000000000001 L 243.50000000000009 79.4 L 246 61 C 246.5 57.5 246.4 56.7 244.6 54.8 z M 257 67 L 250.1 58.3 L 248.7 69.3 L 257 67 z" stroke-linecap="round" />
</g>
		<g transform="matrix(1 0 0 1 -0.65 -164.4)"  >
<path style="stroke: none; stroke-width: 1; stroke-dasharray: none; stroke-linecap: butt; stroke-dashoffset: 0; stroke-linejoin: miter; stroke-miterlimit: 4; fill: rgb(255,255,255); fill-rule: nonzero; opacity: 1;" vector-effect="non-scaling-stroke"  transform=" translate(-296.35, -58.6)" d="M 285.5 50.4 C 285.3 49.4 284.8 48.4 283.9 47 L 283.9 46.7 L 292.5 46.7 L 304.4 61.400000000000006 L 304.5 46.800000000000004 L 308.8 46.800000000000004 L 308.7 70.5 L 303.3 70.5 L 290.1 54.1 L 290 70.4 L 285.7 70.4 L 285.8 52.300000000000004 C 285.6 51.6 285.6 51 285.5 50.4 z" stroke-linecap="round" />
</g>
		<g transform="matrix(1 0 0 1 42.09 -158.43)"  >
<path style="stroke: none; stroke-width: 1; stroke-dasharray: none; stroke-linecap: butt; stroke-dashoffset: 0; stroke-linejoin: miter; stroke-miterlimit: 4; fill: rgb(255,255,255); fill-rule: nonzero; opacity: 1;" vector-effect="non-scaling-stroke"  transform=" translate(-339.09, -64.57)" d="M 327.7 61.1 C 329.59999999999997 53.9 335.7 50.3 344 52.5 C 346.5 53.2 349.2 54.3 351 56.3 L 349.9 60.5 L 349.59999999999997 60.4 C 348.4 58.1 345.9 56.699999999999996 343.59999999999997 56.1 C 339.49999999999994 55 336.49999999999994 56.4 335.49999999999994 60.2 L 334.09999999999997 65.5 C 332.99999999999994 69.5 334.9 72.1 338.59999999999997 73.1 C 339.7 73.39999999999999 340.79999999999995 73.5 341.7 73.39999999999999 L 343.5 66.6 L 339.4 65.5 L 341.29999999999995 62.3 L 350.99999999999994 64.89999999999999 L 347.99999999999994 76.3 C 344.69999999999993 77.5 341.19999999999993 77.6 337.59999999999997 76.6 C 329.2 74.2 325.8 68.2 327.7 61.1 z" stroke-linecap="round" />
</g>
		<g transform="matrix(1 0 0 1 78.85 -144.75)"  >
<path style="stroke: none; stroke-width: 1; stroke-dasharray: none; stroke-linecap: butt; stroke-dashoffset: 0; stroke-linejoin: miter; stroke-miterlimit: 4; fill: rgb(255,255,255); fill-rule: nonzero; opacity: 1;" vector-effect="non-scaling-stroke"  transform=" translate(-375.85, -78.25)" d="M 372.1 67.2 C 372.40000000000003 66.2 372.40000000000003 65.10000000000001 372.3 63.5 L 372.5 63.2 L 389 72.2 L 388.2 75.9 L 378.2 70.4 L 375.3 75.60000000000001 L 383 79.80000000000001 L 380.4 82.50000000000001 L 373.59999999999997 78.80000000000001 L 370.29999999999995 84.9 L 380.79999999999995 90.60000000000001 L 378.09999999999997 93.30000000000001 L 362.7 84.9 L 371.4 69 C 371.7 68.3 371.9 67.8 372.1 67.2 z" stroke-linecap="round" />
</g>
		<g transform="matrix(1 0 0 1 105.8 -123.15)"  >
<path style="stroke: none; stroke-width: 1; stroke-dasharray: none; stroke-linecap: butt; stroke-dashoffset: 0; stroke-linejoin: miter; stroke-miterlimit: 4; fill: rgb(255,255,255); fill-rule: nonzero; opacity: 1;" vector-effect="non-scaling-stroke"  transform=" translate(-402.8, -99.85)" d="M 405.7 88.6 C 406.2 87.69999999999999 406.5 86.69999999999999 406.7 85 L 406.9 84.8 L 413.2 90.39999999999999 L 399.9 105.39999999999999 L 408.2 112.8 L 404.9 114.89999999999999 L 392.4 103.8 L 404.4 90.2 C 405.1 89.6 405.4 89.1 405.7 88.6 z" stroke-linecap="round" />
</g>
		<g transform="matrix(1 0 0 1 133.9 -96.2)"  >
<path style="stroke: none; stroke-width: 1; stroke-dasharray: none; stroke-linecap: butt; stroke-dashoffset: 0; stroke-linejoin: miter; stroke-miterlimit: 4; fill: rgb(255,255,255); fill-rule: nonzero; opacity: 1;" vector-effect="non-scaling-stroke"  transform=" translate(-430.9, -126.8)" d="M 432.4 115.5 C 433.09999999999997 114.7 433.59999999999997 113.8 434.2 112.2 L 434.5 112 L 445.4 127.3 L 443.09999999999997 130.3 L 436.49999999999994 121.00000000000001 L 431.69999999999993 124.50000000000001 L 436.79999999999995 131.60000000000002 L 433.29999999999995 132.90000000000003 L 428.79999999999995 126.60000000000004 L 423.19999999999993 130.60000000000002 L 430.19999999999993 140.3 L 426.5999999999999 141.60000000000002 L 416.3999999999999 127.40000000000002 L 431.0999999999999 116.90000000000002 C 431.6 116.4 432 116 432.4 115.5 z" stroke-linecap="round" />
</g>
		<g transform="matrix(1 0 0 1 151.89 -62.68)"  >
<path style="stroke: none; stroke-width: 1; stroke-dasharray: none; stroke-linecap: butt; stroke-dashoffset: 0; stroke-linejoin: miter; stroke-miterlimit: 4; fill: rgb(255,255,255); fill-rule: nonzero; opacity: 1;" vector-effect="non-scaling-stroke"  transform=" translate(-448.89, -160.32)" d="M 435.9 154.9 L 440 153.20000000000002 L 440.1 153.50000000000003 C 439 156.50000000000003 439.3 159.80000000000004 440.5 162.60000000000002 C 441.7 165.40000000000003 443.3 166.90000000000003 445.1 166.20000000000002 C 446.3 165.70000000000002 446.8 164.70000000000002 446.6 162.8 L 446.1 157.3 C 445.70000000000005 153.20000000000002 446.8 150.3 449.8 149.10000000000002 C 453.8 147.50000000000003 458.2 149.8 460.7 155.8 C 461.9 158.60000000000002 462.3 161.60000000000002 461.9 163.9 L 458 165.5 L 457.9 165.2 C 458.9 162.79999999999998 458.5 159.7 457.5 157.2 C 456.5 154.79999999999998 455 153.29999999999998 453.5 153.89999999999998 C 452.4 154.39999999999998 452.1 155.49999999999997 452.2 157.2 L 452.7 162.7 C 453.09999999999997 167.1 452 170.1 448.59999999999997 171.5 C 443.9 173.4 439.7 170.1 437.2 164.3 C 436 161.1 435.4 157.4 435.9 154.9 z" stroke-linecap="round" />
</g>
		<g transform="matrix(1 0 0 1 -0.05 0.05)"  >
<path style="stroke: none; stroke-width: 1; stroke-dasharray: none; stroke-linecap: butt; stroke-dashoffset: 0; stroke-linejoin: miter; stroke-miterlimit: 4; fill: rgb(10,34,64); fill-rule: nonzero; opacity: 1;" vector-effect="non-scaling-stroke"  transform=" translate(-296.95, -223.05)" d="M 207.5 214.8 L 183.7 218.5 C 186.1 158 235.89999999999998 109.6 297 109.6 L 297 109.6 L 297 110.19999999999999 L 297 147 L 297 147 L 297 158 L 297 158 L 297 164 L 297 164 L 297 170.2 L 297.6 170.39999999999998 L 299.3 163.99999999999997 L 329 163.99999999999997 L 329.2 164.69999999999996 C 328.9 166.89999999999995 329.09999999999997 173.29999999999995 339.9 177.99999999999997 L 340.2 178.89999999999998 L 297.09999999999997 177.79999999999998 L 253.99999999999997 178.89999999999998 L 254.29999999999998 177.99999999999997 C 265.2 173.29999999999998 265.29999999999995 166.89999999999998 265 164.69999999999996 L 265.2 163.99999999999997 L 294.9 163.99999999999997 L 293.4 158.09999999999997 L 271.79999999999995 158.79999999999995 L 271.99999999999994 158.19999999999996 C 278.3999999999999 154.59999999999997 278.59999999999997 149.49999999999997 278.49999999999994 147.59999999999997 L 278.69999999999993 146.89999999999998 L 290.49999999999994 146.89999999999998 L 286.99999999999994 133.59999999999997 C 244.8 138.4 211.4 172.3 207.5 214.8 z M 373.6 175.9 L 370.1 186.4 L 370.8 188 L 402.2 188 L 403.5 184.1 C 388.1 142 348.5 111.6 301.6 109.8 L 305.3 133.6 C 334.3 136.1 359.2 152.4 373.6 175.9 z M 370.9 258 L 370.2 259.6 L 373.7 270.1 C 359.3 293.5 334.4 309.8 305.6 312.5 L 301.90000000000003 336.3 C 348.8 334.40000000000003 388.30000000000007 304 403.70000000000005 262 L 402.40000000000003 258.1 L 370.90000000000003 258.1 L 370.90000000000003 258 z M 342.2 184.9 L 341.9 184 L 297 184 L 252.1 184 L 251.79999999999998 184.9 C 251.7 187.6 250.49999999999997 196.1 238.7 207.8 L 238.39999999999998 208.8 C 244.99999999999997 206 250.89999999999998 203.60000000000002 256.4 201.5 C 263.2 199 269.59999999999997 196.9 275.79999999999995 195.3 C 279.19999999999993 194.4 282.59999999999997 193.60000000000002 285.9 192.9 C 289.4 192.20000000000002 292.79999999999995 191.6 296.2 191.1 L 296.9 191 L 297.59999999999997 191.1 C 300.49999999999994 191.5 303.4 192 306.4 192.6 C 309.2 193.2 312.09999999999997 193.79999999999998 315.09999999999997 194.6 C 320.49999999999994 196 325.99999999999994 197.7 331.99999999999994 199.79999999999998 C 340.09999999999997 202.7 347.99999999999994 205.89999999999998 355.69999999999993 209.2 L 355.29999999999995 207.79999999999998 C 343.6 196.2 342.3 187.6 342.2 184.9 z M 322.2 158.3 C 315.8 154.70000000000002 315.59999999999997 149.60000000000002 315.7 147.70000000000002 L 315.5 147.00000000000003 L 303.7 147.00000000000003 L 300.8 158.10000000000002 L 322.40000000000003 158.8 L 322.2 158.3 z M 317.1 276.1 C 317.20000000000005 276.20000000000005 317.3 276.3 317.40000000000003 276.5 L 317.40000000000003 276.5 L 317.40000000000003 276.5 C 317.6 276.8 318.00000000000006 277.1 318.40000000000003 277.4 C 318.8 277.7 319.3 278 319.90000000000003 278.2 L 319.90000000000003 278.2 L 319.90000000000003 278.2 C 320.90000000000003 278.7 322.3 279.09999999999997 324.00000000000006 279.5 C 327.1000000000001 280.3 330.6000000000001 280.7 333.70000000000005 281 C 334.6 281.1 335.40000000000003 281.2 336.30000000000007 281.2 C 337.70000000000005 277.2 339.4000000000001 273.2 341.4000000000001 269.2 C 337.80000000000007 270.8 333.9000000000001 272.2 329.80000000000007 273.4 C 324.6 274.9 320.2 275.7 317.1 276.1 z M 270.1 279.5 C 271.8 279.1 273.1 278.7 274.20000000000005 278.2 L 274.20000000000005 278.2 C 274.80000000000007 278 275.30000000000007 277.59999999999997 275.70000000000005 277.4 C 276.1 277.09999999999997 276.50000000000006 276.79999999999995 276.70000000000005 276.5 L 276.70000000000005 276.5 L 276.70000000000005 276.5 C 276.80000000000007 276.4 276.90000000000003 276.2 277.00000000000006 276.1 C 274.00000000000006 275.70000000000005 269.50000000000006 274.90000000000003 264.30000000000007 273.5 C 260.20000000000005 272.3 256.30000000000007 270.9 252.70000000000007 269.3 C 254.70000000000007 273.3 256.4000000000001 277.2 257.80000000000007 281.3 C 258.70000000000005 281.2 259.50000000000006 281.2 260.4000000000001 281.1 C 263.4 280.7 267 280.3 270.1 279.5 z M 410.3 223 L 410.3 223 L 410.3 227.5 L 386.5 231.2 L 361.6 235.1 C 356.3 243.7 350.6 252.29999999999998 345.6 261 C 345 261.4 344.40000000000003 261.7 343.8 262.1 C 335.90000000000003 266.6 327.1 269.3 317.40000000000003 270.1 C 318.3 268 319.6 266 320.90000000000003 264 C 321.6 262.9 322.40000000000003 261.8 323.40000000000003 260.4 C 324.20000000000005 259.29999999999995 325.1 258.09999999999997 326.1 256.79999999999995 C 328.6 253.59999999999997 331.20000000000005 250.29999999999995 333.70000000000005 247.19999999999996 C 334.90000000000003 245.69999999999996 336.20000000000005 244.09999999999997 337.50000000000006 242.49999999999997 L 340.40000000000003 238.89999999999998 C 340.50000000000006 238.7 340.6 238.59999999999997 340.8 238.39999999999998 C 341.6 237.29999999999998 342.40000000000003 236.2 343.2 235.2 C 344.09999999999997 234 345 232.7 345.9 231.39999999999998 C 346.2 230.99999999999997 346.4 230.59999999999997 346.7 230.2 C 346.8 230 347 229.7 347.2 229.5 L 347.2 229.5 L 347.2 229.5 L 342.4 228.1 C 342.4 228.1 342.4 228.2 342.29999999999995 228.2 C 342.09999999999997 228.6 341.79999999999995 229 341.59999999999997 229.39999999999998 C 340.9 230.49999999999997 340.09999999999997 231.59999999999997 338.99999999999994 232.99999999999997 C 337.59999999999997 234.89999999999998 335.69999999999993 237.29999999999998 333.59999999999997 239.59999999999997 C 333.49999999999994 239.69999999999996 333.4 239.89999999999998 333.29999999999995 239.99999999999997 L 333.29999999999995 239.99999999999997 C 330.79999999999995 242.89999999999998 327.99999999999994 245.89999999999998 325.4 248.69999999999996 C 323.9 250.29999999999995 322.29999999999995 251.99999999999997 320.79999999999995 253.69999999999996 C 318.9 255.79999999999995 316.69999999999993 258.29999999999995 314.69999999999993 260.9 C 313.69999999999993 262.2 312.79999999999995 263.5 311.8999999999999 264.79999999999995 C 311.19999999999993 265.9 310.2999999999999 267.49999999999994 309.5999999999999 269.19999999999993 C 309.0999999999999 270.3999999999999 308.4999999999999 272.29999999999995 308.5999999999999 274.49999999999994 C 308.5999999999999 276.59999999999997 309.4999999999999 278.79999999999995 310.9999999999999 280.3999999999999 C 311.7999999999999 281.2999999999999 312.6999999999999 281.99999999999994 313.5999999999999 282.5999999999999 L 313.5999999999999 282.5999999999999 L 313.5999999999999 282.5999999999999 C 314.5999999999999 283.19999999999993 315.5999999999999 283.69999999999993 316.4999999999999 284.0999999999999 C 318.1999999999999 284.7999999999999 320.0999999999999 285.2999999999999 322.2999999999999 285.69999999999993 C 324.1999999999999 286.0999999999999 326.0999999999999 286.29999999999995 327.8999999999999 286.3999999999999 C 329.7999999999999 286.5999999999999 331.7999999999999 286.5999999999999 333.3999999999999 286.5999999999999 C 333.49999999999994 286.5999999999999 333.5999999999999 286.5999999999999 333.5999999999999 286.5999999999999 C 333.9999999999999 286.5999999999999 334.2999999999999 286.5999999999999 334.69999999999993 286.5999999999999 C 334.3999999999999 287.69999999999993 334.19999999999993 288.7999999999999 333.8999999999999 289.8999999999999 L 333.8999999999999 289.8999999999999 L 333.8999999999999 289.8999999999999 L 333.8999999999999 289.8999999999999 L 333.8999999999999 289.8999999999999 L 317.2999999999999 295.8999999999999 L 306.9999999999999 299.69999999999993 L 299.7999999999999 225.69999999999993 L 299.0999999999999 218.99999999999994 L 297.7999999999999 205.39999999999995 L 296.9999999999999 205.69999999999996 L 296.9999999999999 219 L 296.9999999999999 222.9 L 296.9999999999999 224.70000000000002 L 296.9999999999999 305.8 L 296.9999999999999 305.8 L 296.9999999999999 335.90000000000003 L 296.9999999999999 336.50000000000006 C 234.3999999999999 336.50000000000006 183.59999999999988 285.80000000000007 183.59999999999988 223.20000000000005 L 183.59999999999988 223.20000000000005 L 183.59999999999988 223.10000000000005 L 208.59999999999988 223.10000000000005 L 250.39999999999986 223.10000000000005 L 256.9999999999999 223.10000000000005 L 257.1999999999999 222.40000000000006 L 246.29999999999987 219.40000000000006 L 236.09999999999988 216.60000000000005 L 236.4999999999999 215.50000000000006 C 255.19999999999987 207.20000000000005 275.4999999999999 199.30000000000007 296.9999999999999 196.30000000000007 C 318.0999999999999 199.10000000000008 338.39999999999986 207.50000000000006 357.5999999999999 215.80000000000007 L 357.8999999999999 216.60000000000008 L 347.69999999999993 219.4000000000001 L 336.8999999999999 222.4000000000001 L 337.0999999999999 223.10000000000008 L 343.69999999999993 223.10000000000008 L 385.49999999999994 223.10000000000008 L 410.29999999999995 223.10000000000008 L 410.29999999999995 223 z M 288.8 312.5 L 286.8 299.5 L 277 295.8 L 260.4 289.8 C 260.4 289.8 260.4 289.8 260.29999999999995 289.8 L 260.29999999999995 289.8 L 260.29999999999995 289.8 L 260.29999999999995 289.8 C 260.09999999999997 288.7 259.79999999999995 287.6 259.49999999999994 286.5 C 259.8999999999999 286.5 260.19999999999993 286.5 260.59999999999997 286.5 C 260.7 286.5 260.79999999999995 286.5 260.79999999999995 286.5 C 262.49999999999994 286.5 264.4 286.5 266.29999999999995 286.3 C 268.09999999999997 286.2 269.99999999999994 286 271.9 285.6 C 274.09999999999997 285.20000000000005 275.9 284.70000000000005 277.7 284 C 278.59999999999997 283.6 279.59999999999997 283.2 280.59999999999997 282.5 L 280.59999999999997 282.5 L 280.59999999999997 282.5 C 281.4 281.9 282.4 281.2 283.2 280.3 C 284.7 278.7 285.5 276.5 285.59999999999997 274.40000000000003 C 285.59999999999997 273.40000000000003 285.59999999999997 271.70000000000005 284.59999999999997 269.1 C 283.9 267.40000000000003 282.99999999999994 265.8 282.29999999999995 264.70000000000005 C 281.49999999999994 263.40000000000003 280.49999999999994 262.00000000000006 279.49999999999994 260.80000000000007 C 277.49999999999994 258.20000000000005 275.29999999999995 255.70000000000007 273.3999999999999 253.60000000000008 C 271.8999999999999 251.9000000000001 270.2999999999999 250.20000000000007 268.7999999999999 248.60000000000008 C 266.0999999999999 245.80000000000007 263.3999999999999 242.80000000000007 260.8999999999999 239.9000000000001 L 260.8999999999999 239.9000000000001 C 260.7999999999999 239.8000000000001 260.69999999999993 239.7000000000001 260.5999999999999 239.50000000000009 C 258.4999999999999 237.10000000000008 256.5999999999999 234.70000000000007 255.1999999999999 232.8000000000001 C 254.1999999999999 231.4000000000001 253.3999999999999 230.3000000000001 252.5999999999999 229.2000000000001 C 252.2999999999999 228.8000000000001 252.0999999999999 228.4000000000001 251.89999999999992 228.0000000000001 C 251.89999999999992 228.0000000000001 251.89999999999992 227.90000000000012 251.79999999999993 227.90000000000012 L 246.99999999999991 229.30000000000013 L 246.99999999999991 229.30000000000013 L 246.99999999999991 229.30000000000013 C 247.1999999999999 229.5000000000001 247.29999999999993 229.80000000000013 247.49999999999991 230.0000000000001 C 247.79999999999993 230.40000000000012 247.99999999999991 230.80000000000013 248.29999999999993 231.2000000000001 C 249.19999999999993 232.5000000000001 250.09999999999994 233.8000000000001 250.99999999999991 235.0000000000001 C 251.79999999999993 236.1000000000001 252.5999999999999 237.2000000000001 253.39999999999992 238.30000000000013 C 253.49999999999991 238.40000000000012 253.5999999999999 238.60000000000014 253.69999999999993 238.70000000000013 L 256.5999999999999 242.30000000000013 C 257.8999999999999 243.90000000000012 259.0999999999999 245.5000000000001 260.3999999999999 247.0000000000001 C 262.8999999999999 250.2000000000001 265.5999999999999 253.40000000000012 267.99999999999994 256.60000000000014 C 268.99999999999994 257.90000000000015 269.8999999999999 259.0000000000001 270.69999999999993 260.20000000000016 C 271.69999999999993 261.60000000000014 272.49999999999994 262.70000000000016 273.19999999999993 263.8000000000002 C 274.49999999999994 265.8000000000002 275.79999999999995 267.8000000000002 276.69999999999993 269.9000000000002 C 267.0999999999999 269.0000000000002 258.19999999999993 266.3000000000002 250.39999999999992 261.9000000000002 C 249.79999999999993 261.6000000000002 249.19999999999993 261.2000000000002 248.5999999999999 260.8000000000002 C 243.6999999999999 252.1000000000002 237.99999999999991 243.50000000000017 232.5999999999999 234.90000000000018 L 207.6999999999999 231.00000000000017 C 211.5 274.3 245.7 308.6 288.8 312.5 z M 297.1 305.7 L 297.1 305.7 L 297.1 305.7 L 297.1 305.7 z" stroke-linecap="round" />
</g>
</g>
</g>
</svg>