<?xml version="1.0" encoding="utf-8"?>
<!-- Generator: Adobe Illustrator 19.0.0, SVG Export Plug-In . SVG Version: 6.00 Build 0)  -->
<svg version="1.1" id="layer" xmlns="http://www.w3.org/2000/svg" xmlns:xlink="http://www.w3.org/1999/xlink" x="0px" y="0px"
	 viewBox="-153 -46 652 652" style="enable-background:new -153 -46 652 652;" xml:space="preserve">
<style type="text/css">
	.st0{fill:#061922;}
	.st1{fill:#98002E;}
	.st2{fill:#F9A01B;stroke:#F9A01B;stroke-width:4.0272;}
	.st3{fill:#FFFFFF;}
</style>
<g>
	<g>
		<path class="st0" d="M341,144.3c-13.6-14.8-43.1-27.2-81.7-34.1c0-4.5,2.8-6.2,7.4-9.6c2.3-1.7,5.1-3.4,7.9-6.2
			c12.5-11.9-2.3-29.5-2.8-30.7l-7.9-9.6l1.7,12.5c1.1,8.5-1.7,11.4-11.4,18.2c-1.1,0.6-2.3,1.7-2.8,2.8c0.6-5.7,0.6-11.9-1.1-19.9
			c-1.7-7.9-5.7-11.4-5.7-11.4l-1.1,11.4c0,0-1.1,9.1-13.1,19.9c1.1-1.1,2.3-2.3,2.8-3.4c5.7-8.5,4-18.2,2.3-29.5l-0.6-2.3
			c-2.3-11.9,1.1-19.3,3.4-20.4c1.7-2.3,5.7-6.2,5.7-6.2s-2.3-1.1-7.9,0c-7.4,1.1-19.9,5.7-19.9,15.9c0,4.5,1.7,8.5,2.8,12.5
			s2.8,7.9,1.7,9.6c-1.1,1.7-4,2.8-7.9,3.4c-17.6,3.4-31.2,11.4-38,23.3c-2.3,4-4,7.9-4.5,12.5c-43.7,0-85.1,5.7-117.5,15.3
			c-35.8,11.4-55.6,26.1-57.3,43.7c-0.6,9.1,3.4,22.7,26.7,35.2l0,0l7.4,3.4l0,0l3.4,1.7l0,0c10.8,4.5,23.3,9.1,36.9,12.5
			c-5.1,2.8-9.6,6.2-13.6,9.6c-22.1,18.2-35.2,45.4-35.2,74.9c0,26.1,10.2,49.9,28.4,68.1s42.6,28.4,68.1,28.4
			c46,0,85.7-32.4,94.8-77.2c7.9-23.3,6.8-48.2,6.8-57.9c-0.6-21.6,9.6-33.5,16.5-38.6c30.7-4,57.3-10.8,77.8-19.3l0,0l3.4-1.7l0,0
			l6.8-3.4l0,0c16.5-9.1,25-19.9,26.1-31.2C350.1,158.5,347.3,151.1,341,144.3z M309.8,163c2.8,2.8,2.8,5.1,2.3,5.7
			c-0.6,3.4-4.5,7.9-11.9,11.4l0,0c-15.3,7.9-42,14.2-73.2,17.6c1.1-1.1,2.8-1.7,4.5-2.3h0.6c9.1-3.4,19.3-7.9,19.9-22.7
			c0-2.3,0-9.6,1.7-12.5c1.7-3.4,6.2-8.5,9.6-9.6l-6.2-1.1c-0.6,0-0.6,0-1.1,0c2.3-1.7,4-3.4,4.5-5.1
			C286,148.8,303.6,155.6,309.8,163z M33.9,166.4c1.1-12.5,45.4-28.4,117.5-31.2c-6.8,5.1-14.8,13.6-16.5,27.8l-0.6,5.1
			c-0.6,3.4-1.1,6.8-2.3,9.6c-2.8,7.4-10.8,13.1-18.7,17.6c-28.9-3.4-53.4-9.6-67-17.6l0,0C37.9,174.9,33.4,170.4,33.9,166.4z"/>
		<g>
			<polygon class="st0" points="83.9,461.6 95.8,411.1 76,411.1 63.5,461.6 			"/>
			<path class="st0" d="M128.2,423.6l1.1,20.4h-10.8l10.8,17.6H148l-2.8-50.5h-30.7l-25,50.5h19.9L128.2,423.6L128.2,423.6z"/>
			<polygon class="st0" points="81.1,507.6 77.1,524.6 95.8,524.6 108.3,474.6 89,474.6 84.5,493.9 70.3,493.9 74.8,474.6 
				55.5,474.6 43.6,524.6 62.3,524.6 66.9,507.6 			"/>
			<polygon class="st0" points="127,513.2 128.2,506.4 152,506.4 154.8,495.6 131,495.6 132.7,488.3 156.6,488.3 160,474.6 
				116.8,474.6 104.3,524.6 147.5,524.6 150.3,513.2 			"/>
			<polygon class="st0" points="249.6,461.6 262.1,411.1 241.7,411.1 229.2,461.6 			"/>
			<path class="st0" d="M283.7,449.7c2.8,4,5.7,11.4-6.8,17c-14.8,6.8,0,23.3-20.4,23.3h-8.5l-8.5,34.6H219l9.1-34.6h-13.6l4.5-15.9
				h35.2c21,0,6.2-14.8,17-16.5C278,456.5,282.6,455.3,283.7,449.7z"/>
			<polygon class="st0" points="28.3,436.6 24.9,411.1 -0.1,411.1 -12.6,461.6 6.1,461.6 12.9,434.9 12.9,434.9 16.4,461.6 
				27.7,461.6 42.5,434.9 43,434.9 36.8,461.6 54.4,461.6 66.9,411.1 42.5,411.1 			"/>
			<polygon class="st0" points="194.6,436.6 191.2,411.1 166.2,411.1 153.7,461.6 172.4,461.6 179.3,434.9 179.3,434.9 182.7,461.6 
				194,461.6 208.8,434.9 209.3,434.9 203.1,461.6 220.7,461.6 233.2,411.1 208.8,411.1 			"/>
			<path class="st0" d="M191.2,487.1l1.1,20.4h-10.8l10.8,17.6H211l-2.8-50.5h-30.7l-25,50.5h19.9L191.2,487.1L191.2,487.1z"/>
		</g>
		<g>
			<path class="st1" d="M24.9,305.5c2.3,12.5,9.6,27.8,24.4,38c4.5,2.8,9.1,5.7,14.2,7.4c-3.4-5.1-6.8-10.8-10.2-15.9
				c-6.8-10.2-14.2-21-18.7-32.4c-4.5-11.9-6.2-23.8-4-36.3l0,0c-3.4,10.2-5.7,21-5.7,32.4C24.3,301,24.9,303.2,24.9,305.5
				L24.9,305.5z"/>
			<path class="st1" d="M40.2,300.4c4.5,10.8,11.4,21,18.2,30.7c5.1,7.4,10.2,15.3,14.2,22.7c4,1.1,8.5,1.7,13.1,1.7
				c-4.5-6.8-8.5-14.2-11.9-22.7c-13.6-33.5-11.4-74.4,5.1-98.2c8.5-12.5,18.7-20.4,32.4-27.8c11.4-6.2,18.7-7.9,25.5-12.5
				c7.9-4.5,11.9-12.5,6.8-30.1c-1.7-5.1-1.7-9.1-1.7-12.5c-1.7,3.4-3.4,7.4-4,12.5l0,0c-0.6,5.1-1.1,10.2-3.4,15.9
				c-6.8,18.2-40.9,28.4-45.4,29.5c-13.1,4-23.3,9.6-31.2,17C35.7,247,31.1,277.7,40.2,300.4z"/>
			<g>
				<path class="st1" d="M181,135.2c0.6,1.1,0.6,2.3,0.6,3.4c1.1,6.2-1.1,11.4-9.1,13.1c-7.9,1.1-10.8-5.7-11.4-11.4
					c0-1.7,0-3.4,0-4.5c-1.1,0-2.8,0-4,0c-2.8,1.7-5.7,4-9.1,6.8c-1.7,3.4-3.4,7.9-0.6,19.3c5.1,19.9,2.8,31.8-13.1,38.6
					c-20.4,8.5-32.9,13.6-50.5,35.8c-8.5,10.2-12.5,27.8-13.6,44.8c-0.6,17,2.8,34.6,8.5,49.4c4,9.6,8.5,18.2,14.2,25.5
					c5.7,0,10.8-1.1,16.5-2.3c-6.2-6.8-9.6-15.9-10.2-25c-2.3-31.8,15.3-45.4,41.4-67l11.9-10.2c47.1-40.3,33.5-81.2,38.6-115.8
					C188.9,135.2,184.9,135.2,181,135.2z"/>
			</g>
			<g>
				<path class="st1" d="M200.3,135.8c-1.7,6.8-2.3,14.2-2.8,21.6c-1.7,30.7-1.1,64.7-39.7,99.3l-11.9,9.6
					c-25.5,20.4-40.3,33.5-39.7,61.9c0.6,9.1,4,17.6,10.8,23.8c7.4-2.3,14.2-5.1,21-9.1c33.5-18.7,54.5-47.7,62.4-84
					c5.1-23.3,5.1-42,5.1-56.8c0-7.4,1.1-22.7,1.1-22.7c1.1-9.6,2.8-22.7,13.6-39.7c0.6-0.6,0.6-1.1,1.1-1.7
					C215,136.9,207.6,136.3,200.3,135.8z"/>
			</g>
			<path class="st1" d="M211,234C211,233.4,211,233.4,211,234C211,233.4,211,234,211,234c-1.1,5.7-1.1,11.4-2.3,17.6
				c-0.6,2.3-0.6,4.5-1.1,6.8c0,0.6,0,1.1-0.6,1.7c-8.5,38.6-30.1,68.1-65.3,88c-6.2,3.4-11.9,6.2-18.2,8.5
				c10.2,6.8,22.1,9.1,30.7,7.9c31.8-4.5,47.1-25.5,54.5-47.7c7.4-22.7,6.8-46.5,6.2-56.8c-1.1-33.5,24.4-46,24.4-46
				C220.1,213.5,213.3,222.1,211,234z"/>
			<path class="st1" d="M190,357.1c-13.1,10.8-26.7,13.1-32.9,14.2c-12.5,1.7-27.2-1.1-40.3-11.4l-0.6-0.6c-5.7,1.7-11.4,2.3-17,2.8
				c12.5,13.6,29.5,21.6,52.2,23.3c0,0,0,0,0.6,0l0,0C167.3,379.3,180.4,369.1,190,357.1C190.6,356.6,190.6,356.6,190,357.1z"/>
			<path class="st1" d="M72.5,379.8c0-6.8-1.7-14.2-5.1-21c-7.9-2.3-15.3-5.7-22.7-10.2c-4-2.3-7.9-6.2-11.4-9.6l0,0
				C42.5,356.6,56.1,370.8,72.5,379.8L72.5,379.8z"/>
			<path class="st1" d="M137.3,389.5c-12.5-2.8-23.3-7.4-32.9-14.8c-5.1-3.4-9.1-7.9-13.1-12.5c-5.1,0-10.2-0.6-15.3-1.7
				c2.8,7.4,4,14.8,3.4,22.1l0,0c11.9,5.1,25,8.5,38.6,8.5C124.2,391.8,131,391.2,137.3,389.5L137.3,389.5z"/>
			<g>
				<path class="st1" d="M245.1,160.8c-2.3,7.4-9.1,6.2-11.4,2.3c-3.4-6.2-2.3-10.8,1.1-14.2c3.4-3.4,9.1-5.1,14.2-7.4l0,0
					c-6.2-1.1-13.1-2.3-19.9-2.8c0,0,0,0-0.6,0.6c-0.6,0.6-1.1,1.7-1.7,2.3c-11.4,17-12.5,29.5-13.6,39.2l-0.6,2.8
					c-0.6,5.1-0.6,11.4-0.6,18.7c0,1.1,0,2.3,0,3.4c0,2.8,0,5.1-0.6,7.4l0,0c0-1.1,0-1.7,0-1.1c3.4-10.2,9.1-16.5,17-19.9
					c9.1-3.4,17.6-6.8,18.2-19.9c0-5.7,0.6-10.8,1.7-13.6c2.3-5.1,6.2-6.2,6.2-6.2C252.5,151.7,247.4,153.4,245.1,160.8z"/>
			</g>
		</g>
	</g>
	<g>
		<path class="st2" d="M255.9,109.1c0.6-8.5,9.1-10.2,17-17.6c10.2-9.6-2.8-26.1-2.8-26.1c1.7,10.8-3.4,14.8-12.5,21.6
			c-2.8,2.3-5.1,5.1-5.1,8.5c-0.6,4-0.6,8.5-1.7,13.1C252.5,108.5,254.2,109.1,255.9,109.1z"/>
		<path class="st2" d="M228.1,94.3c-2.3,1.7-4.5,4-6.8,5.7c-1.7,1.7-2.8,2.8-4.5,4.5c9.1,0.6,17.6,1.7,26.1,2.8
			c5.1-9.6,7.9-21,4.5-39.7C247.4,67.7,246.8,80.2,228.1,94.3z"/>
		<path class="st2" d="M178.1,102.3c10.2,0,20.4,0.6,30.1,1.1c0.6-0.6,0.6-0.6,1.1-1.1c6.8-6.8,17-13.1,22.1-21
			c5.7-7.9,3.4-17.6,1.1-29.5c-3.4-20.4,5.1-23.8,5.1-23.8s-17,2.3-16.5,12.5c0.6,13.1,14.2,25.5-6.2,29.5
			c-22.7,4-36.3,16.5-39.7,32.4C175.8,102.3,177,102.3,178.1,102.3z"/>
	</g>
	<path class="st3" d="M178.1,107.4c-94.8-1.1-173.7,23.3-176,54.5c-1.1,12.5,10.2,23.8,30.1,33.5c12.5,5.7,27.8,10.8,46,14.8
		c3.4-1.7,7.4-2.8,11.4-4c3.4-1.1,9.1-2.8,15.3-5.7c-26.7-4-47.7-9.6-61.3-17c-9.6-5.1-14.8-11.4-14.2-17.6
		c1.7-21,68.1-36.9,148.1-36.3s143,18.2,141.3,39.2c-0.6,5.7-5.7,10.8-14.8,15.9c-16.5,8.5-46,15.3-81.7,18.7
		c-1.1,1.7-2.3,3.4-3.4,5.7c16.5-6.2,35.2,2.8,35.2,2.8s1.1,0.6,2.3,1.1c23.8-4,44.3-10.2,59.6-17.6c18.2-8.5,28.9-18.7,30.1-30.1
		C347.3,134.1,272.3,108.5,178.1,107.4z"/>
</g>
</svg>
