<?xml version="1.0" encoding="UTF-8" standalone="no" ?>
<!DOCTYPE svg PUBLIC "-//W3C//DTD SVG 1.1//EN" "http://www.w3.org/Graphics/SVG/1.1/DTD/svg11.dtd">
<svg xmlns="http://www.w3.org/2000/svg" xmlns:xlink="http://www.w3.org/1999/xlink" version="1.1" width="1080" height="1080" viewBox="0 0 1080 1080" xml:space="preserve">
<desc>Created with Fabric.js 5.2.4</desc>
<defs>
</defs>
<rect x="0" y="0" width="100%" height="100%" fill="transparent"></rect>
<g transform="matrix(1 0 0 1 540 540)" id="628bdb03-6c2c-4142-9497-ee40fdde4be8"  >
<rect style="stroke: none; stroke-width: 1; stroke-dasharray: none; stroke-linecap: butt; stroke-dashoffset: 0; stroke-linejoin: miter; stroke-miterlimit: 4; fill: rgb(255,255,255); fill-rule: nonzero; opacity: 1; visibility: hidden;" vector-effect="non-scaling-stroke"  x="-540" y="-540" rx="0" ry="0" width="1080" height="1080" />
</g>
<g transform="matrix(1 0 0 1 540 540)" id="d45d0ef5-78f6-4b7f-95aa-a3db9f8bc876"  >
</g>
<g transform="matrix(3.96 0 0 3.96 535.1 540)"  >
<g style="" vector-effect="non-scaling-stroke"   >
		<g transform="matrix(0.54 0 0 0.54 -0.22 -0.27)"  >
<path style="stroke: none; stroke-width: 1; stroke-dasharray: none; stroke-linecap: butt; stroke-dashoffset: 0; stroke-linejoin: round; stroke-miterlimit: 1.41; fill: rgb(254,254,254); fill-rule: nonzero; opacity: 1;" vector-effect="non-scaling-stroke"  transform=" translate(-249.59, -145.56)" d="M 432.68 71.414 C 436.357 69.796 440.66200000000003 67.941 444.627 66.282 L 457.449 60.913 L 415.418 47.278999999999996 L 405.315 0.03999999999999915 L 379.897 38.056 L 336.805 27.080999999999996 L 351.285 45.897999999999996 C 297.019 39.004 236.74900000000002 44.095 182.616 60.211999999999996 L 186.19000000000003 48.98 L 176.94100000000003 51.638 C 103.23000000000003 72.775 38.71600000000004 130.175 8.561000000000035 201.437 L 0.002000000000036195 221.67600000000002 L 16.656000000000034 207.352 C 52.68200000000004 176.405 89.86200000000004 144.458 143.83000000000004 127.352 L 128.79300000000003 162.328 L 141.90400000000002 155.145 C 153.74800000000002 148.65300000000002 167.116 143.66500000000002 181.38000000000002 140.223 L 200.64000000000001 146.839 C 230.79600000000002 157.175 256.966 166.13 282.672 182.578 C 282.47700000000003 210.629 293.857 238.453 314.15700000000004 259.342 C 334.086 279.839 360.091 291.08299999999997 387.466 291.08299999999997 L 388.28000000000003 291.08299999999997 C 451.125 290.609 488.182 244.32699999999997 497.029 198.69499999999996 C 504.98 157.66999999999996 492.363 101.12399999999997 432.68 71.41399999999996" stroke-linecap="round" />
</g>
		<g transform="matrix(0.54 0 0 0.54 1.99 1.86)"  >
<path style="stroke: none; stroke-width: 1; stroke-dasharray: none; stroke-linecap: butt; stroke-dashoffset: 0; stroke-linejoin: round; stroke-miterlimit: 1.41; fill: rgb(196,205,211); fill-rule: nonzero; opacity: 1;" vector-effect="non-scaling-stroke"  transform=" translate(-253.69, -253.43)" d="M 194.277 243.167 C 229.99399999999997 237.684 265.64 239.292 296.846 252.472 L 300.647 244.104 C 250.16 227.84300000000002 186.697 228.67700000000002 139.42399999999998 254.57500000000002 L 152.885 223.26700000000002 C 93.469 239.33300000000003 53.487999999999985 272.867 13.299999999999983 307.40000000000003 C 42.600999999999985 238.13800000000003 106.31199999999998 181.20100000000002 178.36499999999998 160.53900000000004 L 174.69799999999998 172.02900000000005 C 237.791 151.42900000000006 307.042 147.52300000000005 363.111 156.78700000000006 L 349.98 139.69100000000006 L 382.144 147.89400000000006 L 402.835 116.97800000000007 L 411.012 155.21100000000007 L 442.641 165.47500000000008 C 442.641 165.47500000000008 419.60200000000003 175.13100000000009 420.704 175.5840000000001 C 540.493 224.95700000000008 502.149 389.0080000000001 388.241 389.8840000000001 C 330.627 390.3580000000001 285.929 338.2640000000001 287.876 283.7700000000001 C 258.585 264.47800000000007 229.19099999999997 255.1930000000001 194.277 243.1670000000001" stroke-linecap="round" />
</g>
		<g transform="matrix(0.54 0 0 0.54 4.01 4.02)"  >
<path style="stroke: none; stroke-width: 1; stroke-dasharray: none; stroke-linecap: butt; stroke-dashoffset: 0; stroke-linejoin: round; stroke-miterlimit: 1.41; fill: rgb(18,12,13); fill-rule: nonzero; opacity: 1;" vector-effect="non-scaling-stroke"  transform=" translate(-257.43, -257.45)" d="M 408.856 175.63 C 415.447 172.755 427.755 167.385 427.755 167.385 L 428.671 166.98399999999998 L 427.71299999999997 166.664 C 427.71299999999997 166.664 407.91799999999995 160.15099999999998 403.66499999999996 158.76999999999998 C 403.02599999999995 154.28699999999998 399.895 132.74899999999997 399.895 132.74899999999997 L 399.751 131.70799999999997 L 392.55199999999996 143.42499999999998 C 392.55199999999996 143.42499999999998 388.42199999999997 150.07199999999997 386.198 153.7 C 381.51099999999997 152.504 361.05699999999996 147.29 361.05699999999996 147.29 L 359.97599999999994 147.022 L 360.65599999999995 147.898 C 360.67599999999993 147.91899999999998 368.98799999999994 158.626 374.02399999999994 165.139 C 353.4359999999999 160.666 329.6859999999999 158.162 302.4549999999999 158.162 C 293.51499999999993 158.162 284.2049999999999 158.43 274.52399999999994 158.987 C 237.39499999999995 161.10899999999998 200.88499999999993 168.035 165.84699999999992 180.7 L 169.85399999999993 168.777 L 169.14299999999992 168.993 C 114.30999999999992 186.131 54.34899999999992 237.565 27.838999999999913 288.422 L 28.435999999999915 288.875 C 65.9149999999999 253.703 116.63799999999992 225.61 162.10899999999992 215.388 L 150.16199999999992 243.243 L 151.0889999999999 242.79999999999998 C 172.2429999999999 232.57699999999997 200.01999999999992 228.053 228.05399999999992 228.053 C 256.7269999999999 228.053 285.6669999999999 232.793 308.0369999999999 240.945 L 299.4579999999999 259.649 C 279.0659999999999 250.292 249.5689999999999 243.985 225.0979999999999 243.985 C 220.7419999999999 243.985 216.5399999999999 244.181 212.5739999999999 244.603 L 212.5129999999999 245.356 C 241.4119999999999 253.517 271.3409999999999 262.741 295.0599999999999 281.764 C 294.9169999999999 283.777 294.8439999999999 285.795 294.8439999999999 287.814 C 294.85399999999987 337.877 338.04899999999986 383.189 388.7309999999999 383.20000000000005 C 389.07099999999986 383.20000000000005 389.4209999999999 383.189 389.76099999999985 383.189 C 445.62399999999985 382.53000000000003 487.01599999999985 331.281 487.02599999999984 277.848 C 487.03599999999983 238.49200000000002 464.52299999999985 197.93 408.8559999999998 175.63" stroke-linecap="round" />
</g>
		<g transform="matrix(0.54 0 0 0.54 64.97 16.24)"  >
<path style="stroke: none; stroke-width: 1; stroke-dasharray: none; stroke-linecap: butt; stroke-dashoffset: 0; stroke-linejoin: round; stroke-miterlimit: 1.41; fill: rgb(196,205,211); fill-rule: nonzero; opacity: 1;" vector-effect="non-scaling-stroke"  transform=" translate(-370.31, -280.08)" d="M 378.384 267.333 C 357.754 267.333 337.115 259.769 316.38300000000004 252.14300000000003 C 310.92400000000004 263.70500000000004 308.14300000000003 275.824 308.14300000000003 288.149 C 308.14300000000003 294.704 308.92600000000004 301.33 310.52200000000005 307.946 C 312.232 307.987 313.95200000000006 308.00800000000004 315.672 308.00800000000004 C 355.69500000000005 308.00800000000004 398.168 296.87800000000004 432.475 276.52500000000003 C 428.52000000000004 269.16700000000003 423.61800000000005 262.293 418.53000000000003 255.67700000000002 C 405.172 264.12800000000004 391.783 267.333 378.384 267.333" stroke-linecap="round" />
</g>
		<g transform="matrix(0.54 0 0 0.54 47.07 15.34)"  >
<path style="stroke: none; stroke-width: 1; stroke-dasharray: none; stroke-linecap: butt; stroke-dashoffset: 0; stroke-linejoin: round; stroke-miterlimit: 1.41; fill: rgb(196,205,211); fill-rule: nonzero; opacity: 1;" vector-effect="non-scaling-stroke"  transform=" translate(-337.15, -278.4)" d="M 314.23 315.785 L 312.88100000000003 315.785 C 325.39500000000004 348.175 354.098 369.641 389.105 370.125 C 400.31100000000004 342.507 412.742 312.33299999999997 441.15700000000004 298.225 C 439.67400000000004 293.247 437.85100000000006 288.404 435.843 283.63300000000004 C 399.25 305.02600000000007 356.529 315.785 314.23 315.785 M 400.738 214.139 C 388.297 209.388 380.366 207.91400000000002 379.625 207.78 C 376.144 208.254 371.416 208.718 367.595 209.481 C 388.75 217.91 404.36300000000006 228.13299999999998 420.059 245.642 C 428.12300000000005 239.263 435.209 232.039 440.122 223.166 C 425.73400000000004 209.161 398.637 192.003 331.05400000000003 186.685 C 359.593 193.476 385.83500000000004 202.638 401.088 213.469 z M 211.253 204.758 C 215.445 204.66500000000002 219.96599999999998 204.613 224.755 204.613 C 272.77 204.634 346.872 210.281 375.60699999999997 244.423 L 375.123 245 C 365.18399999999997 239.456 345.29699999999997 230.274 332.896 230.284 C 332.495 230.284 332.103 230.29399999999998 331.72200000000004 230.315 C 327.458 235.024 323.689 240.239 320.31100000000004 245.639 C 339.519 252.71900000000002 358.96400000000006 259.757 378.23300000000006 259.747 C 390.33500000000004 259.747 402.36400000000003 256.985 414.2800000000001 249.72000000000003 C 380.97300000000007 213.40400000000002 324.6060000000001 197.56500000000003 271.4310000000001 197.56500000000003 C 250.3180000000001 197.56500000000003 229.6990000000001 200.05800000000002 211.2530000000001 204.75800000000004 M 438.4620000000001 272.72800000000007 C 447.7510000000001 266.4000000000001 455.7750000000001 259.79400000000004 463.0560000000001 251.30300000000005 C 458.47300000000007 242.58400000000006 450.5530000000001 232.79400000000004 444.8680000000001 227.75500000000005 C 439.5740000000001 237.09200000000004 432.7970000000001 244.80000000000007 424.5580000000001 251.58100000000005 C 429.4090000000001 258.05300000000005 434.5380000000001 265.607 438.4620000000001 272.72800000000007" stroke-linecap="round" />
</g>
		<g transform="matrix(0.54 0 0 0.54 99.63 34.87)"  >
<path style="stroke: none; stroke-width: 1; stroke-dasharray: none; stroke-linecap: butt; stroke-dashoffset: 0; stroke-linejoin: round; stroke-miterlimit: 1.41; fill: rgb(196,205,211); fill-rule: nonzero; opacity: 1;" vector-effect="non-scaling-stroke"  transform=" translate(-434.52, -314.58)" d="M 397.248 369.788 C 414.11899999999997 367.72700000000003 429.629 361.967 442.668 350.88800000000003 C 444.676 343.41700000000003 445.531 335.68800000000005 445.531 327.93800000000005 C 445.531 320.53900000000004 444.748 313.10900000000004 443.42 305.88500000000005 C 417.97 318.1170000000001 407.404 344.98300000000006 397.249 369.78800000000007 M 453.043 332.9150000000001 C 453.043 335.4700000000001 452.981 338.02600000000007 452.858 340.58200000000005 C 462.755 327.18500000000006 468.059 315.55000000000007 470.995 298.43300000000005 C 463.775 299.07200000000006 456.617 300.28800000000007 449.809 302.5450000000001 C 452.03400000000005 312.63400000000007 453.043 322.73300000000006 453.043 332.9150000000001 M 441.966 279.8110000000001 C 444.19100000000003 284.9230000000001 446.17900000000003 290.1060000000001 447.909 295.4140000000001 C 455.839 292.8270000000001 463.502 291.4980000000001 471.772 290.9930000000001 C 471.783 290.4050000000001 471.783 289.8280000000001 471.783 289.2410000000001 C 471.783 278.2860000000001 470.166 269.8560000000001 466.60200000000003 259.3760000000001 C 459.01200000000006 267.1460000000001 450.999 273.7620000000001 441.966 279.8110000000001" stroke-linecap="round" />
</g>
		<g transform="matrix(0.54 0 0 0.54 111.71 14.79)"  >
<path style="stroke: none; stroke-width: 1; stroke-dasharray: none; stroke-linecap: butt; stroke-dashoffset: 0; stroke-linejoin: round; stroke-miterlimit: 1.41; fill: rgb(196,205,211); fill-rule: nonzero; opacity: 1;" vector-effect="non-scaling-stroke"  transform=" translate(-456.87, -277.39)" d="M 471.77 290.997 C 463.5 291.502 455.84799999999996 292.831 447.907 295.418 C 446.17699999999996 290.1 444.19899999999996 284.927 441.964 279.81600000000003 C 450.997 273.75600000000003 459.02 267.14000000000004 466.6 259.37 C 470.163 269.861 471.78000000000003 278.29 471.78000000000003 289.245 C 471.78000000000003 289.822 471.78000000000003 290.409 471.77000000000004 290.997" stroke-linecap="round" />
</g>
		<g transform="matrix(0.54 0 0 0.54 107.01 6.26)"  >
<path style="stroke: none; stroke-width: 1; stroke-dasharray: none; stroke-linecap: butt; stroke-dashoffset: 0; stroke-linejoin: round; stroke-miterlimit: 1.41; fill: rgb(196,205,211); fill-rule: nonzero; opacity: 1;" vector-effect="non-scaling-stroke"  transform=" translate(-448.17, -261.59)" d="M 471.77 290.997 C 463.5 291.502 455.84799999999996 292.831 447.907 295.418 C 446.17699999999996 290.1 444.19899999999996 284.927 441.964 279.81600000000003 C 450.997 273.75600000000003 459.02 267.14000000000004 466.6 259.37 C 470.163 269.861 471.78000000000003 278.29 471.78000000000003 289.245 C 471.78000000000003 289.822 471.78000000000003 290.409 471.77000000000004 290.997 M 444.865 227.75300000000001 C 450.55 232.792 458.48 242.59300000000002 463.063 251.30100000000002 C 455.771 259.79200000000003 447.748 266.408 438.459 272.725 C 434.535 265.60400000000004 429.406 258.05100000000004 424.555 251.579 C 432.794 244.798 439.571 237.09 444.865 227.75300000000001" stroke-linecap="round" />
</g>
		<g transform="matrix(0.54 0 0 0.54 79.41 -10.96)"  >
<path style="stroke: none; stroke-width: 1; stroke-dasharray: none; stroke-linecap: butt; stroke-dashoffset: 0; stroke-linejoin: round; stroke-miterlimit: 1.41; fill: rgb(196,205,211); fill-rule: nonzero; opacity: 1;" vector-effect="non-scaling-stroke"  transform=" translate(-397.06, -229.7)" d="M 444.865 227.753 C 450.55 232.79199999999997 458.48 242.593 463.063 251.301 C 455.771 259.792 447.748 266.408 438.459 272.72499999999997 C 434.535 265.604 429.406 258.051 424.555 251.57899999999995 C 432.794 244.79799999999994 439.571 237.08999999999995 444.865 227.75299999999996 M 331.05 186.68199999999996 C 398.63300000000004 192.00999999999996 425.73 209.16799999999995 440.12800000000004 223.16299999999995 C 435.20500000000004 232.03599999999994 428.119 239.25999999999996 420.06500000000005 245.63899999999995 C 404.369 228.13999999999996 388.74600000000004 217.90699999999995 367.60100000000006 209.47799999999995 C 371.41200000000003 208.72499999999997 376.13900000000007 208.25099999999995 379.62000000000006 207.77699999999996 C 380.3620000000001 207.91099999999994 388.2920000000001 209.38499999999996 400.73400000000004 214.13499999999996 L 401.09400000000005 213.46599999999995 C 385.8310000000001 202.63499999999996 359.58900000000006 193.48399999999995 331.05000000000007 186.68199999999996" stroke-linecap="round" />
</g>
		<g transform="matrix(0.54 0 0 0.54 67.04 -1.43)"  >
<path style="stroke: none; stroke-width: 1; stroke-dasharray: none; stroke-linecap: butt; stroke-dashoffset: 0; stroke-linejoin: round; stroke-miterlimit: 1.41; fill: rgb(196,205,211); fill-rule: nonzero; opacity: 1;" vector-effect="non-scaling-stroke"  transform=" translate(-374.14, -247.35)" d="M 331.05 186.682 C 398.63300000000004 192.01 425.73 209.16799999999998 440.12800000000004 223.16299999999998 C 435.20500000000004 232.03599999999997 428.119 239.26 420.06500000000005 245.63899999999998 C 404.369 228.14 388.74600000000004 217.90699999999998 367.60100000000006 209.47799999999998 C 371.41200000000003 208.725 376.13900000000007 208.25099999999998 379.62000000000006 207.777 C 380.3620000000001 207.91099999999997 388.2920000000001 209.385 400.73400000000004 214.135 L 401.09400000000005 213.46599999999998 C 385.8310000000001 202.635 359.58900000000006 193.48399999999998 331.05000000000007 186.682 M 315.67100000000005 308.01099999999997 C 313.951 308.01099999999997 312.23100000000005 307.98999999999995 310.52200000000005 307.94899999999996 C 308.92500000000007 301.323 308.14200000000005 294.70699999999994 308.14200000000005 288.15299999999996 C 308.14200000000005 275.81699999999995 310.92300000000006 263.698 316.39200000000005 252.14599999999996 C 337.11400000000003 259.76099999999997 357.75300000000004 267.33599999999996 378.38300000000004 267.33599999999996 C 391.78200000000004 267.33599999999996 405.17100000000005 264.131 418.52900000000005 255.66999999999996 C 423.61600000000004 262.29599999999994 428.51900000000006 269.16999999999996 432.47400000000005 276.52799999999996 C 398.16700000000003 296.881 355.6940000000001 308.01099999999997 315.67100000000005 308.01099999999997" stroke-linecap="round" />
</g>
		<g transform="matrix(0.54 0 0 0.54 64.97 16.24)"  >
<path style="stroke: none; stroke-width: 1; stroke-dasharray: none; stroke-linecap: butt; stroke-dashoffset: 0; stroke-linejoin: round; stroke-miterlimit: 1.41; fill: rgb(196,205,211); fill-rule: nonzero; opacity: 1;" vector-effect="non-scaling-stroke"  transform=" translate(-370.31, -280.08)" d="M 315.671 308.011 C 313.95099999999996 308.011 312.231 307.99 310.522 307.949 C 308.925 301.32300000000004 308.142 294.707 308.142 288.153 C 308.142 275.817 310.923 263.69800000000004 316.392 252.14600000000002 C 337.114 259.761 357.753 267.336 378.383 267.336 C 391.782 267.336 405.171 264.13100000000003 418.529 255.67000000000002 C 423.616 262.296 428.519 269.17 432.474 276.528 C 398.167 296.88100000000003 355.69399999999996 308.011 315.671 308.011" stroke-linecap="round" />
</g>
		<g transform="matrix(0.54 0 0 0.54 68.59 41.51)"  >
<path style="stroke: none; stroke-width: 1; stroke-dasharray: none; stroke-linecap: butt; stroke-dashoffset: 0; stroke-linejoin: round; stroke-miterlimit: 1.41; fill: rgb(196,205,211); fill-rule: nonzero; opacity: 1;" vector-effect="non-scaling-stroke"  transform=" translate(-377.02, -326.88)" d="M 389.106 370.122 C 354.099 369.63800000000003 325.395 348.172 312.882 315.78200000000004 L 314.231 315.78200000000004 C 356.53 315.78200000000004 399.251 305.023 435.844 283.63000000000005 C 437.852 288.41100000000006 439.675 293.244 441.158 298.22200000000004 C 412.743 312.33000000000004 400.31100000000004 342.504 389.106 370.12200000000007" stroke-linecap="round" />
</g>
		<g transform="matrix(0.54 0 0 0.54 76.65 41.51)"  >
<path style="stroke: none; stroke-width: 1; stroke-dasharray: none; stroke-linecap: butt; stroke-dashoffset: 0; stroke-linejoin: round; stroke-miterlimit: 1.41; fill: rgb(196,205,211); fill-rule: nonzero; opacity: 1;" vector-effect="non-scaling-stroke"  transform=" translate(-391.94, -326.88)" d="M 389.106 370.122 C 354.099 369.63800000000003 325.395 348.172 312.882 315.78200000000004 L 314.231 315.78200000000004 C 356.53 315.78200000000004 399.251 305.023 435.844 283.63000000000005 C 437.852 288.41100000000006 439.675 293.244 441.158 298.22200000000004 C 412.743 312.33000000000004 400.31100000000004 342.504 389.106 370.12200000000007 M 452.858 340.5850000000001 C 452.981 338.0190000000001 453.043 335.4630000000001 453.043 332.9180000000001 C 453.043 322.7360000000001 452.034 312.6270000000001 449.809 302.5380000000001 C 456.617 300.2810000000001 463.77500000000003 299.0750000000001 470.995 298.4260000000001 C 468.059 315.5530000000001 462.755 327.1880000000001 452.858 340.5850000000001" stroke-linecap="round" />
</g>
		<g transform="matrix(0.54 0 0 0.54 49.2 10.3)"  >
<path style="stroke: none; stroke-width: 1; stroke-dasharray: none; stroke-linecap: butt; stroke-dashoffset: 0; stroke-linejoin: round; stroke-miterlimit: 1.41; fill: rgb(196,205,211); fill-rule: nonzero; opacity: 1;" vector-effect="non-scaling-stroke"  transform=" translate(-341.12, -269.08)" d="M 452.858 340.585 C 452.981 338.019 453.043 335.46299999999997 453.043 332.918 C 453.043 322.736 452.034 312.627 449.809 302.538 C 456.617 300.281 463.77500000000003 299.075 470.995 298.426 C 468.059 315.553 462.755 327.188 452.858 340.585 M 414.276 249.71499999999997 C 402.36 256.97999999999996 390.341 259.75199999999995 378.22900000000004 259.75199999999995 C 358.95900000000006 259.75199999999995 339.51500000000004 252.72399999999996 320.307 245.63399999999996 C 323.685 240.23399999999995 327.454 235.02999999999997 331.718 230.30999999999995 C 332.099 230.29899999999995 332.49100000000004 230.27899999999994 332.892 230.27899999999994 C 345.292 230.26799999999994 365.18 239.46099999999993 375.11899999999997 245.00499999999994 L 375.60299999999995 244.41799999999995 C 346.87899999999996 210.27599999999995 272.76599999999996 204.62899999999996 224.75099999999995 204.60799999999995 C 219.97199999999995 204.60799999999995 215.44099999999995 204.66999999999996 211.24899999999994 204.75299999999996 C 229.70499999999993 200.06399999999996 250.31399999999994 197.56999999999996 271.43699999999995 197.56999999999996 C 324.61199999999997 197.55899999999997 380.9789999999999 213.39899999999997 414.27599999999995 249.71499999999997" stroke-linecap="round" />
</g>
		<g transform="matrix(0.54 0 0 0.54 42.33 18.19)"  >
<path style="stroke: none; stroke-width: 1; stroke-dasharray: none; stroke-linecap: butt; stroke-dashoffset: 0; stroke-linejoin: round; stroke-miterlimit: 1.41; fill: rgb(196,205,211); fill-rule: nonzero; opacity: 1;" vector-effect="non-scaling-stroke"  transform=" translate(-328.39, -283.68)" d="M 414.276 249.715 C 402.36 256.98 390.341 259.752 378.22900000000004 259.752 C 358.95900000000006 259.752 339.51500000000004 252.72400000000002 320.307 245.63400000000001 C 323.685 240.234 327.454 235.03000000000003 331.718 230.31 C 332.099 230.299 332.49100000000004 230.279 332.892 230.279 C 345.292 230.268 365.18 239.46099999999998 375.11899999999997 245.005 L 375.60299999999995 244.418 C 346.87899999999996 210.276 272.76599999999996 204.62900000000002 224.75099999999995 204.608 C 219.97199999999995 204.608 215.44099999999995 204.67000000000002 211.24899999999994 204.75300000000001 C 229.70499999999993 200.06400000000002 250.31399999999994 197.57000000000002 271.43699999999995 197.57000000000002 C 324.61199999999997 197.55900000000003 380.9789999999999 213.39900000000003 414.27599999999995 249.71500000000003 M 442.667 350.884 C 429.628 361.962 414.118 367.733 397.248 369.784 C 407.402 344.979 417.969 318.124 443.419 305.881 C 444.74699999999996 313.10499999999996 445.53 320.53499999999997 445.53 327.93399999999997 C 445.53 335.68399999999997 444.67499999999995 343.41299999999995 442.667 350.88399999999996" stroke-linecap="round" />
</g>
		<g transform="matrix(0.54 0 0 0.54 85.96 4.28)"  >
<path style="stroke: none; stroke-width: 1; stroke-dasharray: none; stroke-linecap: butt; stroke-dashoffset: 0; stroke-linejoin: round; stroke-miterlimit: 1.41; fill: rgb(196,205,211); fill-rule: nonzero; opacity: 1;" vector-effect="non-scaling-stroke"  transform=" translate(-409.18, -257.92)" d="M 442.667 350.884 C 429.628 361.962 414.118 367.733 397.248 369.784 C 407.402 344.979 417.969 318.124 443.419 305.881 C 444.74699999999996 313.10499999999996 445.53 320.53499999999997 445.53 327.93399999999997 C 445.53 335.68399999999997 444.67499999999995 343.41299999999995 442.667 350.88399999999996 M 375.89599999999996 182.85999999999996 L 390.59299999999996 177.71799999999996 L 401.74699999999996 190.38299999999995 L 400.44999999999993 173.85299999999995 L 414.68299999999994 167.63899999999995 L 399.1929999999999 162.55799999999996 L 396.79299999999995 146.04899999999998 L 388.52299999999997 159.45699999999997 L 372.83799999999997 155.44799999999998 L 383.23999999999995 168.82399999999998 z" stroke-linecap="round" />
</g>
		<g transform="matrix(0.54 0 0 0.54 1.37 -30.7)"  >
<path style="stroke: none; stroke-width: 1; stroke-dasharray: none; stroke-linecap: butt; stroke-dashoffset: 0; stroke-linejoin: round; stroke-miterlimit: 1.41; fill: rgb(254,254,254); fill-rule: nonzero; opacity: 1;" vector-effect="non-scaling-stroke"  transform=" translate(-252.55, -193.16)" d="M 297.6 194.768 L 307.807 189.728 L 316.314 197.293 L 314.65500000000003 186.03900000000002 L 324.48100000000005 180.32000000000002 L 313.26500000000004 178.40300000000002 L 310.845 167.30400000000003 L 305.58200000000005 177.39300000000003 L 294.24300000000005 176.23900000000003 L 302.20400000000006 184.37000000000003 z M 182.83100000000002 217.357 L 189.556 214.039 L 195.138 219.016 L 194.046 211.617 L 200.504 207.845 L 193.13 206.578 L 191.533 199.281 L 188.063 205.887 L 180.61599999999999 205.156 L 185.84799999999998 210.50400000000002 z" stroke-linecap="round" />
</g>
		<g transform="matrix(0.54 0 0 0.54 67.97 34.4)"  >
<path style="stroke: none; stroke-width: 1; stroke-dasharray: none; stroke-linecap: butt; stroke-dashoffset: 0; stroke-linejoin: round; stroke-miterlimit: 1.41; fill: rgb(0,119,192); fill-rule: nonzero; opacity: 1;" vector-effect="non-scaling-stroke"  transform=" translate(-375.88, -313.7)" d="M 436.932 318.923 L 436.922 317.553 L 427.447 333.433 L 430.166 319.449 L 429.496 319.129 C 415.613 335.978 410.30899999999997 348.087 405.99399999999997 363.009 L 405.78799999999995 363.72 L 406.48799999999994 363.483 C 422.07099999999997 358.073 430.1139999999999 351.818 433.40999999999997 349.2 L 433.48199999999997 349.138 L 433.52299999999997 349.056 C 435.84099999999995 344.027 436.93199999999996 333.835 436.943 321.34499999999997 C 436.943 320.541 436.93199999999996 319.73699999999997 436.93199999999996 318.92299999999994 M 405.253 282.15099999999995 C 390.09299999999996 285.23199999999997 372.399 287.04599999999994 356.188 287.04599999999994 C 353.747 287.04599999999994 351.347 287.00399999999996 348.99899999999997 286.9219999999999 L 383.779 276.6269999999999 L 383.687 275.8749999999999 C 360.72 274.7929999999999 342.995 274.3599999999999 320.553 263.8379999999999 L 320.234 263.68299999999994 L 320.05899999999997 263.99299999999994 C 316.722 269.98999999999995 314.816 278.38899999999995 314.816 286.90099999999995 C 314.816 291.73499999999996 315.43399999999997 296.609 316.75199999999995 301.08199999999994 L 316.835 301.3499999999999 L 317.10299999999995 301.3599999999999 C 317.12299999999993 301.3599999999999 317.91599999999994 301.3799999999999 319.38899999999995 301.3799999999999 C 329.41999999999996 301.3799999999999 370.62699999999995 300.2779999999999 405.49999999999994 282.8719999999999 z M 412.924 310.37899999999996 C 395.38399999999996 323.41499999999996 382.181 333.95799999999997 356.32 338.83199999999994 C 380.265 326.3829999999999 396.332 317.81999999999994 411.431 302.51599999999996 L 410.967 301.91799999999995 C 384.18899999999996 317.52099999999996 349.316 324.198 324.712 325.126 L 324.042 325.147 L 324.40299999999996 325.71299999999997 C 344.66099999999994 357.784 370.28499999999997 360.659 378.61699999999996 360.659 L 378.669 360.659 C 380.399 360.659 381.36699999999996 360.545 381.388 360.545 L 381.563 360.514 L 381.656 360.37 C 392.532 343.171 399.442 326.61 413.439 310.946 z" stroke-linecap="round" />
</g>
		<g transform="matrix(0.54 0 0 0.54 96.79 5.71)"  >
<path style="stroke: none; stroke-width: 1; stroke-dasharray: none; stroke-linecap: butt; stroke-dashoffset: 0; stroke-linejoin: round; stroke-miterlimit: 1.41; fill: rgb(254,254,254); fill-rule: nonzero; opacity: 1;" vector-effect="non-scaling-stroke"  transform=" translate(-429.24, -260.58)" d="M 394.966 203.508 C 393.7 202.83800000000002 392.402 202.209 391.053 201.601 C 411.764 207.753 425.73 215.75 433.537 221.831 C 432.332 223.613 430.993 225.334 429.623 227.004 C 420.034 217.059 408.324 208.959 394.966 203.50799999999998 M 458.769 319.556 L 458.697 318.20599999999996 C 459.82 312.631 460.448 307.03499999999997 460.644 301.51099999999997 C 462.106 301.11999999999995 463.61 300.82099999999997 465.11400000000003 300.54299999999995 C 463.507 307.39599999999996 461.509 313.62999999999994 458.77000000000004 319.5559999999999 M 467.42100000000005 283.19899999999996 C 464.72200000000004 283.55899999999997 462.22 283.95099999999996 459.74800000000005 284.48699999999997 C 459.19200000000006 280.47799999999995 458.38800000000003 276.51099999999997 457.369 272.60499999999996 C 460.057 270.34799999999996 462.632 268.04999999999995 465.237 265.597 C 466.73100000000005 271.358 467.35900000000004 276.768 467.42100000000005 283.19899999999996 M 458.1820000000001 249.17099999999996 C 455.8860000000001 251.64399999999998 453.66100000000006 253.83899999999997 451.40600000000006 255.88999999999996 C 448.8930000000001 250.48999999999995 445.95700000000005 245.30599999999995 442.5590000000001 240.41099999999994 C 444.3300000000001 238.27799999999993 446.0400000000001 236.07299999999995 447.6460000000001 233.76399999999995 C 451.9720000000001 238.55599999999995 455.73100000000005 244.16199999999995 458.1820000000001 249.17099999999996" stroke-linecap="round" />
</g>
		<g transform="matrix(0.54 0 0 0.54 0 0)"  >
<path style="stroke: none; stroke-width: 1; stroke-dasharray: none; stroke-linecap: butt; stroke-dashoffset: 0; stroke-linejoin: round; stroke-miterlimit: 1.41; fill: none; fill-rule: evenodd; opacity: 1;" vector-effect="non-scaling-stroke"  transform=" translate(-250, -250)" d="M 0 0 L 500 0 L 500 500 L 0 500 z" stroke-linecap="round" />
</g>
</g>
</g>
</svg>