<?xml version="1.0" encoding="UTF-8" standalone="no" ?>
<!DOCTYPE svg PUBLIC "-//W3C//DTD SVG 1.1//EN" "http://www.w3.org/Graphics/SVG/1.1/DTD/svg11.dtd">
<svg xmlns="http://www.w3.org/2000/svg" xmlns:xlink="http://www.w3.org/1999/xlink" version="1.1" width="1080" height="1080" viewBox="0 0 1080 1080" xml:space="preserve">
<desc>Created with Fabric.js 5.2.4</desc>
<defs>
</defs>
<g transform="matrix(1 0 0 1 540 540)" id="d45d0ef5-78f6-4b7f-95aa-a3db9f8bc876"  >
</g>
<g transform="matrix(1 0 0 1 540 540)" id="628bdb03-6c2c-4142-9497-ee40fdde4be8"  >
<rect style="stroke: none; stroke-width: 1; stroke-dasharray: none; stroke-linecap: butt; stroke-dashoffset: 0; stroke-linejoin: miter; stroke-miterlimit: 4; fill: rgb(255,255,255); fill-rule: nonzero; opacity: 1; visibility: hidden;" vector-effect="non-scaling-stroke"  x="-540" y="-540" rx="0" ry="0" width="1080" height="1080" />
</g>
<g transform="matrix(3.79 0 0 3.79 540 540)"  >
<g style="" vector-effect="non-scaling-stroke"   >
		<g transform="matrix(1 0 0 1 0 0.01)"  >
<path style="stroke: none; stroke-width: 1; stroke-dasharray: none; stroke-linecap: butt; stroke-dashoffset: 0; stroke-linejoin: miter; stroke-miterlimit: 4; fill: rgb(158,162,162); fill-rule: evenodd; opacity: 1;" vector-effect="non-scaling-stroke"  transform=" translate(-280, -200.01)" d="M 314.304 190.537 L 314.58599999999996 166.812 C 314.561 155.675 302.98499999999996 153.81 294.44199999999995 153.95100000000002 C 300.17599999999993 152.05300000000003 307.06999999999994 148.81400000000002 312.06699999999995 143.419 C 318.05099999999993 138.07600000000002 321.14599999999996 130.192 320.3949999999999 122.20500000000001 C 319.3019999999999 106.11200000000001 299.1809999999999 98.09900000000002 265.82899999999995 101.33100000000002 C 265.2819999999999 101.38000000000002 264.73499999999996 101.43800000000002 264.19599999999997 101.49600000000002 C 262.78599999999994 89.91400000000002 260.20399999999995 78.50600000000003 256.48999999999995 67.44700000000003 L 254.84099999999995 69.08700000000003 C 250.40799999999996 82.84300000000003 247.75699999999995 93.80600000000004 246.21499999999995 103.98200000000003 C 234.76799999999994 105.90200000000003 223.45999999999995 108.57400000000003 212.36399999999995 111.97900000000003 L 210.72399999999996 113.61900000000003 C 210.72399999999996 113.61900000000003 226.82499999999996 112.16000000000003 245.17099999999996 112.41800000000003 C 243.13299999999995 133.27500000000003 245.21299999999997 153.08900000000003 245.14699999999996 190.51900000000003 C 215.50599999999997 189.68200000000004 189.50199999999995 194.61300000000003 183.13799999999998 202.52700000000004 C 181.04999999999998 204.25000000000006 179.93999999999997 206.13900000000004 180.00599999999997 208.17000000000004 C 180.32999999999998 217.24300000000005 207.27799999999996 225.57200000000006 245.15599999999998 228.75300000000004 L 246.771 280.196 L 248.42 278.548 L 251.07999999999998 243.661 C 251.082 243.167 251.14299999999997 242.674 251.26199999999997 242.194 C 252.05799999999996 242.302 252.81099999999998 243.321 252.81099999999998 245.095 L 253.97899999999998 291.03499999999997 L 255.628 289.395 L 258.454 252.00599999999997 C 258.434 251.30699999999996 258.516 250.60999999999999 258.694 249.93399999999997 C 259.498 250.07499999999996 260.235 251.25199999999998 260.177 253.35699999999997 L 261.487 301.253 L 263.127 299.613 L 265.39 229.906 C 269.741 230.046 274.18 230.119 278.707 230.121 C 283.497 230.121 288.212 230.038 292.827 229.889 L 295.115 302.563 L 296.755 300.923 L 298.711 262.887 C 298.707 262.242 298.785 261.599 298.94300000000004 260.973 C 299.689 261.147 300.37700000000007 262.25800000000004 300.37700000000007 264.221 L 302.34100000000007 317.562 L 303.9820000000001 315.921 L 305.9700000000001 269.84 C 305.98300000000006 269.272 306.07200000000006 268.709 306.23500000000007 268.166 C 307.18000000000006 268.158 308.1410000000001 269.285 308.1820000000001 271.49 L 309.8230000000001 332.57 L 311.4630000000001 330.921 L 313.85800000000006 228.639 C 346.22600000000006 225.81300000000002 370.8040000000001 219.28400000000002 376.89400000000006 211.78400000000002 C 378.91600000000005 210.086 380.00200000000007 208.329 380.00200000000007 206.538 C 379.5210000000001 196.561 349.5810000000001 188.872 314.30500000000006 190.537 M 244.80600000000007 217.941 C 218.86000000000007 215.438 201.33400000000006 210.17600000000002 201.33400000000006 203.522 C 201.33800000000005 203.02599999999998 201.48100000000005 202.54 201.74900000000005 202.12099999999998 C 207.83100000000005 197.84499999999997 226.46800000000005 195.14399999999998 245.13700000000006 192.343 C 245.11200000000005 199.66 245.00500000000005 207.63199999999998 244.76400000000007 216.40699999999998 L 244.80600000000007 217.93999999999997 z M 297.66600000000005 128.62 C 298.65200000000004 135.96200000000002 296.547 141.505 292.76000000000005 145.69 C 285.98900000000003 151.82999999999998 275.37500000000006 154.623 266.74000000000007 155.89 C 266.88900000000007 142.035 266.6910000000001 127.65699999999998 265.4890000000001 113.54599999999999 C 282.1450000000001 115.32799999999999 296.4400000000001 119.529 297.6660000000001 128.619 M 292.8100000000001 219.349 C 288.7410000000001 219.465 284.58100000000013 219.52599999999998 280.3300000000001 219.53099999999998 C 275.3250000000001 219.53099999999998 270.4440000000001 219.44799999999998 265.7130000000001 219.28199999999998 L 265.9030000000001 213.36499999999998 C 265.4550000000001 198.38299999999998 266.39200000000005 179.59699999999998 266.6910000000001 159.53499999999997 C 278.8380000000001 160.94399999999996 293.4980000000001 164.40799999999996 293.2410000000001 172.95099999999996 L 292.8100000000001 219.34799999999996 z M 357.3290000000001 207.789 C 351.2880000000001 212.55399999999997 335.2040000000001 216.242 313.9810000000001 218.131 L 314.2880000000001 192.617 C 338.58500000000015 195.78199999999998 358.2980000000001 199.337 358.2980000000001 205.16299999999998 C 358.2750000000001 206.12099999999998 357.93400000000014 207.046 357.3290000000001 207.789" stroke-linecap="round" />
</g>
		<g transform="matrix(1 0 0 1 0.81 -0.84)"  >
<path style="stroke: none; stroke-width: 1; stroke-dasharray: none; stroke-linecap: butt; stroke-dashoffset: 0; stroke-linejoin: miter; stroke-miterlimit: 4; fill: rgb(206,17,65); fill-rule: evenodd; opacity: 1;" vector-effect="non-scaling-stroke"  transform=" translate(-280.81, -199.16)" d="M 379.975 206.522 C 379.519 196.56099999999998 349.579 188.87199999999999 314.303 190.529 L 314.585 166.804 C 314.544 152.12 294.441 153.553 287.662 154.448 C 295.57599999999996 153.014 322.027 146.41 320.394 122.18800000000002 C 319.301 106.09600000000002 299.18 98.08300000000001 265.827 101.31400000000002 C 265.281 101.36400000000002 264.734 101.42200000000003 264.195 101.47900000000003 C 262.78499999999997 89.89800000000002 260.203 78.48900000000003 256.489 67.43000000000004 C 251.849 81.81600000000003 249.15499999999997 93.15200000000004 247.64699999999996 103.72600000000003 C 235.70999999999995 105.66900000000003 223.91899999999995 108.42100000000002 212.35399999999996 111.96300000000002 C 200.78999999999996 115.50500000000002 228.45499999999996 110.50400000000002 246.80199999999996 110.76200000000003 C 244.72999999999996 131.93400000000003 246.90099999999995 152.02100000000002 246.77699999999996 190.55400000000003 C 211.71599999999995 189.31900000000002 181.27999999999997 196.14700000000002 181.64399999999995 206.50500000000002 C 181.95899999999995 215.57900000000004 208.91499999999996 223.91600000000003 246.79299999999995 227.09700000000004 L 248.40099999999995 278.53200000000004 L 251.05999999999995 243.64500000000004 C 251.14299999999994 239.32000000000005 254.44099999999995 239.71700000000004 254.44099999999995 243.43000000000004 L 255.61799999999994 289.37100000000004 L 258.44399999999996 251.98200000000003 C 258.40299999999996 246.93600000000004 261.93299999999994 247.17500000000004 261.80899999999997 251.69200000000004 L 263.10999999999996 299.588 L 265.42199999999997 228.199 C 270.27799999999996 228.37300000000002 275.25899999999996 228.464 280.33 228.464 C 285.12 228.464 289.835 228.381 294.45 228.232 L 296.738 300.898 L 298.693 262.86300000000006 C 298.71799999999996 258.01500000000004 302 258.26400000000007 301.99199999999996 262.55600000000004 L 303.95599999999996 315.8960000000001 L 305.953 269.81500000000005 C 306.102 265.29100000000005 309.724 265.48900000000003 309.806 269.81500000000005 L 311.447 330.89500000000004 L 313.875 227.18000000000004 L 313.875 227.11400000000003 C 352.176 223.95700000000002 379.977 215.61200000000002 379.977 206.52200000000005 M 299.306 126.97900000000004 C 302.01599999999996 147.10700000000003 281.49 153.72900000000004 266.748 155.89100000000005 C 267.024 141.15400000000005 266.555 126.41300000000004 265.34 111.72300000000004 C 282.75 113.38800000000005 298.039 117.56500000000004 299.306 126.97900000000004 M 201.334 203.52200000000005 C 201.334 197.37400000000005 224.039 194.12500000000006 246.77800000000002 190.71100000000004 C 246.75300000000001 198.02000000000004 246.645 206.00000000000003 246.40500000000003 214.76600000000005 L 246.51200000000003 218.10600000000005 C 219.63000000000002 215.67000000000004 201.33300000000003 210.31700000000006 201.33300000000003 203.52200000000005 M 265.71200000000005 219.28400000000005 L 265.90200000000004 213.36700000000005 C 265.43800000000005 197.93700000000004 266.44900000000007 178.46400000000006 266.72300000000007 157.71400000000006 C 279.14400000000006 158.99000000000007 295.15400000000005 162.37000000000006 294.88900000000007 171.30300000000005 L 294.4340000000001 219.29100000000005 C 289.86000000000007 219.44000000000005 285.14400000000006 219.52300000000005 280.3300000000001 219.52300000000005 C 275.3250000000001 219.53200000000004 270.4440000000001 219.44900000000004 265.7130000000001 219.28300000000004 M 313.9820000000001 218.13100000000006 L 314.3060000000001 190.76000000000005 C 339.3400000000001 193.99200000000005 359.9320000000001 197.57200000000006 359.9320000000001 203.53000000000006 C 359.94000000000005 210.34200000000007 341.18700000000007 215.71100000000007 313.9820000000001 218.13100000000006" stroke-linecap="round" />
</g>
</g>
</g>
</svg>