<svg xmlns="http://www.w3.org/2000/svg" viewBox="0 0 225.17 184.41"><title>Phoenix Suns logo</title><path d="M551,562.08" transform="translate(-399.42 -419.8)" style="fill:none"/><polygon points="0 184.41 108.43 125.03 34.9 184.41 124.12 133.14 122.65 143.48 137.53 135.21 171.14 166.99 189.03 113.24 214.9 111.58 201.74 78.98 225.17 60.64 194.87 48.84 202.54 16.24 176.75 28.05 163.46 0 142.81 20.63 105.64 3.95 100.53 37.14 67.4 44.32 87 56.13 67.28 66.03 84.03 67.48 15.12 121.08 84.44 84.26 10.07 140.87 89.23 99.61 4.68 163.18 97.87 113.52 0 184.41" style="fill:#f9a01b"/><path d="M597.83,499.25a54,54,0,1,1-51.73-56.18A54,54,0,0,1,597.83,499.25Z" transform="translate(-399.42 -419.8)" style="fill:#e56020"/><path d="M550.49,543.6a54,54,0,0,1-36.56-91.51,54,54,0,1,0,68.72,82.47A53.67,53.67,0,0,1,550.49,543.6Z" transform="translate(-399.42 -419.8)" style="fill:#b95915"/><path d="M597.85,497.65a53.66,53.66,0,0,0-.23-5.73,24.92,24.92,0,0,0-11.2-4.39c-.83-.1-1.63-.15-2.44-.21a67,67,0,0,0-2.41-10.46l1.69.1c3.8.28,7.54.71,11.24,1.25q-.78-2.06-1.71-4c-4.15-.63-8.37-1.12-12.64-1.44h0a63.62,63.62,0,0,0-5-10,14.54,14.54,0,0,0,7.22-3.58q-1.53-1.55-3.18-3a11.7,11.7,0,0,1-6.56,2.78c-.39-.55-.79-1.11-1.2-1.64a59.08,59.08,0,0,0-12.56-12.16,53.77,53.77,0,0,0-12.73-2.07l-.72,0A52.32,52.32,0,0,1,566.8,459c-5.62-.54-12.1-2.43-18.51-4.3-1.89-.56-3.75-1.11-5.55-1.6-10.91-3-19.3-3.49-25.59-3A54.32,54.32,0,0,0,504.57,460c6.8-2.84,20.51-7.68,37.15-3.07,1.77.49,3.61,1,5.47,1.57,7.36,2.17,15.61,4.57,22.74,4.65a59.35,59.35,0,0,1,5.08,9.25c-1.4-.07-2.79-.11-4.18-.13-34.67-.59-64.4,9.78-80.89,26.33a54.16,54.16,0,0,0,1.12,9.63c4.65-6.68,11.54-12.71,20.44-17.71,16.78-9.43,39-14.4,62.71-14,.81,0,1.63,0,2.45.08a60.79,60.79,0,0,1,2.65,10.6c-15.24.65-25.12,10.16-36.46,20.28-10.19,9.11-22.6,18.19-40.79,23.65a53.53,53.53,0,0,0,5.59,5.9c17.13-6.9,28.51-17.64,38.12-26.23,10.92-9.77,20.29-19.12,34-19.58a63.33,63.33,0,0,1,0,11.6C578,524,565.74,541.91,549,550.76a53.28,53.28,0,0,0,12.35-2.66c1.34-1.11,2.65-2.27,3.91-3.51a66.05,66.05,0,0,0,19.14-41.36,69.28,69.28,0,0,0,0-11.8c.69.07,1.37.13,2.07.25A21,21,0,0,1,597.85,497.65Z" transform="translate(-399.42 -419.8)"/></svg>